STARTFONT 2.1
COMMENT
COMMENT Converted from OpenType font "IBMPlexSans-Medium.ttf" by "otf2bdf 3.0".
COMMENT
FONT -FreeType-IBM Plex Sans Medm-Medium-R-Normal--14-140-72-72-P-73-ISO10646-1
SIZE 14 72 72
FONTBOUNDINGBOX 21 21 -3 -4
STARTPROPERTIES 19
FOUNDRY "FreeType"
FAMILY_NAME "IBM Plex Sans Medm"
WEIGHT_NAME "Medium"
SLANT "R"
SETWIDTH_NAME "Normal"
ADD_STYLE_NAME ""
PIXEL_SIZE 14
POINT_SIZE 140
RESOLUTION_X 72
RESOLUTION_Y 72
SPACING "P"
AVERAGE_WIDTH 73
CHARSET_REGISTRY "ISO10646"
CHARSET_ENCODING "1"
FONT_ASCENT 14
FONT_DESCENT 3
COPYRIGHT "Copyright 2018 IBM Corp. All rights reserved."
_OTF_FONTFILE "IBMPlexSans-Medium.ttf"
_OTF_PSNAME "IBMPlexSans-Medm"
ENDPROPERTIES
CHARS 844
STARTCHAR 0000
ENCODING 0
SWIDTH 0 0
DWIDTH 0 0
BBX 0 0 0 0
BITMAP
ENDCHAR
STARTCHAR 000D
ENCODING 13
SWIDTH 214 0
DWIDTH 3 0
BBX 0 0 0 0
BITMAP
ENDCHAR
STARTCHAR 0020
ENCODING 32
SWIDTH 214 0
DWIDTH 3 0
BBX 0 0 0 0
BITMAP
ENDCHAR
STARTCHAR 0021
ENCODING 33
SWIDTH 285 0
DWIDTH 4 0
BBX 2 10 1 0
BITMAP
C0
C0
C0
C0
C0
40
80
00
C0
C0
ENDCHAR
STARTCHAR 0022
ENCODING 34
SWIDTH 428 0
DWIDTH 6 0
BBX 4 4 1 6
BITMAP
90
90
90
90
ENDCHAR
STARTCHAR 0023
ENCODING 35
SWIDTH 642 0
DWIDTH 9 0
BBX 8 10 1 0
BITMAP
22
26
24
FF
24
64
FE
48
48
48
ENDCHAR
STARTCHAR 0024
ENCODING 36
SWIDTH 571 0
DWIDTH 8 0
BBX 7 12 1 -1
BITMAP
10
7C
D6
90
D0
70
1C
16
16
94
78
10
ENDCHAR
STARTCHAR 0025
ENCODING 37
SWIDTH 928 0
DWIDTH 13 0
BBX 11 10 1 0
BITMAP
70C0
9180
9100
9A00
96E0
7520
0920
1920
1120
20E0
ENDCHAR
STARTCHAR 0026
ENCODING 38
SWIDTH 714 0
DWIDTH 10 0
BBX 9 10 1 0
BITMAP
3800
4C00
4400
6C00
3000
5B00
CA00
8600
C600
7B80
ENDCHAR
STARTCHAR 0027
ENCODING 39
SWIDTH 285 0
DWIDTH 4 0
BBX 1 4 1 6
BITMAP
80
80
80
80
ENDCHAR
STARTCHAR 0028
ENCODING 40
SWIDTH 357 0
DWIDTH 5 0
BBX 4 13 1 -2
BITMAP
30
60
40
C0
80
80
80
80
80
C0
40
60
30
ENDCHAR
STARTCHAR 0029
ENCODING 41
SWIDTH 357 0
DWIDTH 5 0
BBX 4 13 0 -2
BITMAP
C0
60
20
20
30
30
30
30
30
20
20
60
C0
ENDCHAR
STARTCHAR 002A
ENCODING 42
SWIDTH 500 0
DWIDTH 7 0
BBX 7 6 0 4
BITMAP
10
94
7E
98
28
64
ENDCHAR
STARTCHAR 002B
ENCODING 43
SWIDTH 571 0
DWIDTH 8 0
BBX 6 7 1 1
BITMAP
10
10
10
FC
10
10
10
ENDCHAR
STARTCHAR 002C
ENCODING 44
SWIDTH 285 0
DWIDTH 4 0
BBX 2 4 1 -2
BITMAP
C0
C0
40
80
ENDCHAR
STARTCHAR 002D
ENCODING 45
SWIDTH 428 0
DWIDTH 6 0
BBX 4 2 1 3
BITMAP
F0
F0
ENDCHAR
STARTCHAR 002E
ENCODING 46
SWIDTH 285 0
DWIDTH 4 0
BBX 2 2 1 0
BITMAP
C0
C0
ENDCHAR
STARTCHAR 002F
ENCODING 47
SWIDTH 428 0
DWIDTH 6 0
BBX 5 12 0 -2
BITMAP
08
18
10
10
10
30
20
20
60
40
40
C0
ENDCHAR
STARTCHAR 0030
ENCODING 48
SWIDTH 571 0
DWIDTH 8 0
BBX 7 10 1 0
BITMAP
78
CC
C4
86
86
86
86
C4
CC
78
ENDCHAR
STARTCHAR 0031
ENCODING 49
SWIDTH 571 0
DWIDTH 8 0
BBX 7 10 1 0
BITMAP
38
78
D8
98
18
18
18
18
18
FE
ENDCHAR
STARTCHAR 0032
ENCODING 50
SWIDTH 571 0
DWIDTH 8 0
BBX 7 10 1 0
BITMAP
78
CC
84
04
0C
18
30
60
C0
FE
ENDCHAR
STARTCHAR 0033
ENCODING 51
SWIDTH 571 0
DWIDTH 8 0
BBX 7 10 0 0
BITMAP
3C
46
06
06
18
06
02
02
46
FC
ENDCHAR
STARTCHAR 0034
ENCODING 52
SWIDTH 571 0
DWIDTH 8 0
BBX 8 10 0 0
BITMAP
0E
0E
16
36
26
66
46
FF
06
06
ENDCHAR
STARTCHAR 0035
ENCODING 53
SWIDTH 571 0
DWIDTH 8 0
BBX 7 10 1 0
BITMAP
7C
C0
C0
C0
F8
CC
06
06
CC
78
ENDCHAR
STARTCHAR 0036
ENCODING 54
SWIDTH 571 0
DWIDTH 8 0
BBX 7 10 1 0
BITMAP
18
30
60
C0
FC
C4
86
86
C4
78
ENDCHAR
STARTCHAR 0037
ENCODING 55
SWIDTH 571 0
DWIDTH 8 0
BBX 7 10 1 0
BITMAP
FE
84
8C
0C
08
18
10
30
30
60
ENDCHAR
STARTCHAR 0038
ENCODING 56
SWIDTH 571 0
DWIDTH 8 0
BBX 7 10 1 0
BITMAP
78
C4
C4
C4
38
C4
86
86
C4
78
ENDCHAR
STARTCHAR 0039
ENCODING 57
SWIDTH 571 0
DWIDTH 8 0
BBX 7 10 1 0
BITMAP
78
C4
84
86
C6
7C
0C
0C
18
70
ENDCHAR
STARTCHAR 003A
ENCODING 58
SWIDTH 285 0
DWIDTH 4 0
BBX 2 8 1 0
BITMAP
C0
C0
00
00
00
00
C0
C0
ENDCHAR
STARTCHAR 003B
ENCODING 59
SWIDTH 285 0
DWIDTH 4 0
BBX 2 10 1 -2
BITMAP
C0
C0
00
00
00
00
C0
C0
40
80
ENDCHAR
STARTCHAR 003C
ENCODING 60
SWIDTH 571 0
DWIDTH 8 0
BBX 6 8 1 0
BITMAP
04
0C
30
E0
E0
30
0C
04
ENDCHAR
STARTCHAR 003D
ENCODING 61
SWIDTH 571 0
DWIDTH 8 0
BBX 6 4 1 2
BITMAP
FC
00
00
FC
ENDCHAR
STARTCHAR 003E
ENCODING 62
SWIDTH 571 0
DWIDTH 8 0
BBX 6 8 1 0
BITMAP
80
E0
38
0C
0C
38
E0
80
ENDCHAR
STARTCHAR 003F
ENCODING 63
SWIDTH 500 0
DWIDTH 7 0
BBX 6 10 0 0
BITMAP
78
CC
04
04
0C
38
30
00
30
30
ENDCHAR
STARTCHAR 0040
ENCODING 64
SWIDTH 928 0
DWIDTH 13 0
BBX 11 12 1 -2
BITMAP
1F00
2080
4040
9F40
9320
9320
9320
9340
9DC0
4000
6000
1F00
ENDCHAR
STARTCHAR 0041
ENCODING 65
SWIDTH 642 0
DWIDTH 9 0
BBX 9 10 0 0
BITMAP
1C00
1C00
1400
3600
3200
2200
7F00
6100
4100
C180
ENDCHAR
STARTCHAR 0042
ENCODING 66
SWIDTH 642 0
DWIDTH 9 0
BBX 7 10 1 0
BITMAP
FC
C6
C6
C6
FC
C2
C2
C2
C2
FC
ENDCHAR
STARTCHAR 0043
ENCODING 67
SWIDTH 642 0
DWIDTH 9 0
BBX 7 10 1 0
BITMAP
3C
46
C4
80
80
80
80
C4
46
3C
ENDCHAR
STARTCHAR 0044
ENCODING 68
SWIDTH 714 0
DWIDTH 10 0
BBX 8 10 1 0
BITMAP
FC
C6
C2
C3
C3
C3
C3
C2
C6
FC
ENDCHAR
STARTCHAR 0045
ENCODING 69
SWIDTH 571 0
DWIDTH 8 0
BBX 6 10 1 0
BITMAP
FC
C0
C0
C0
FC
C0
C0
C0
C0
FC
ENDCHAR
STARTCHAR 0046
ENCODING 70
SWIDTH 571 0
DWIDTH 8 0
BBX 6 10 1 0
BITMAP
FC
C0
C0
C0
FC
C0
C0
C0
C0
C0
ENDCHAR
STARTCHAR 0047
ENCODING 71
SWIDTH 714 0
DWIDTH 10 0
BBX 8 10 1 0
BITMAP
3C
42
C3
C0
80
8F
C3
C3
43
3F
ENDCHAR
STARTCHAR 0048
ENCODING 72
SWIDTH 714 0
DWIDTH 10 0
BBX 8 10 1 0
BITMAP
C3
C3
C3
C3
FF
C3
C3
C3
C3
C3
ENDCHAR
STARTCHAR 0049
ENCODING 73
SWIDTH 428 0
DWIDTH 6 0
BBX 4 10 1 0
BITMAP
F0
60
60
60
60
60
60
60
60
F0
ENDCHAR
STARTCHAR 004A
ENCODING 74
SWIDTH 500 0
DWIDTH 7 0
BBX 6 10 0 0
BITMAP
3C
04
04
04
04
04
04
04
CC
78
ENDCHAR
STARTCHAR 004B
ENCODING 75
SWIDTH 642 0
DWIDTH 9 0
BBX 8 10 1 0
BITMAP
C7
C4
CC
D8
F0
F8
CC
CC
C6
C3
ENDCHAR
STARTCHAR 004C
ENCODING 76
SWIDTH 500 0
DWIDTH 7 0
BBX 6 10 1 0
BITMAP
C0
C0
C0
C0
C0
C0
C0
C0
C0
FC
ENDCHAR
STARTCHAR 004D
ENCODING 77
SWIDTH 785 0
DWIDTH 11 0
BBX 9 10 1 0
BITMAP
C180
E180
E380
F280
D680
DC80
C880
C880
C080
C080
ENDCHAR
STARTCHAR 004E
ENCODING 78
SWIDTH 714 0
DWIDTH 10 0
BBX 8 10 1 0
BITMAP
C3
E3
E3
F3
DB
DB
CF
C7
C7
C3
ENDCHAR
STARTCHAR 004F
ENCODING 79
SWIDTH 714 0
DWIDTH 10 0
BBX 8 10 1 0
BITMAP
3C
46
C3
C3
83
83
C3
C3
46
3C
ENDCHAR
STARTCHAR 0050
ENCODING 80
SWIDTH 642 0
DWIDTH 9 0
BBX 7 10 1 0
BITMAP
FC
C6
C2
C2
C6
FC
C0
C0
C0
C0
ENDCHAR
STARTCHAR 0051
ENCODING 81
SWIDTH 714 0
DWIDTH 10 0
BBX 8 12 1 -2
BITMAP
3C
46
C3
C3
83
83
C3
C3
46
3C
18
0C
ENDCHAR
STARTCHAR 0052
ENCODING 82
SWIDTH 642 0
DWIDTH 9 0
BBX 7 10 1 0
BITMAP
FC
C6
C2
C2
C6
F8
CC
C4
C6
C6
ENDCHAR
STARTCHAR 0053
ENCODING 83
SWIDTH 571 0
DWIDTH 8 0
BBX 7 10 1 0
BITMAP
78
C6
80
C0
70
0C
06
86
C4
78
ENDCHAR
STARTCHAR 0054
ENCODING 84
SWIDTH 571 0
DWIDTH 8 0
BBX 8 10 0 0
BITMAP
FF
18
18
18
18
18
18
18
18
18
ENDCHAR
STARTCHAR 0055
ENCODING 85
SWIDTH 714 0
DWIDTH 10 0
BBX 7 10 1 0
BITMAP
C2
C2
C2
C2
C2
C2
C2
C2
46
3C
ENDCHAR
STARTCHAR 0056
ENCODING 86
SWIDTH 642 0
DWIDTH 9 0
BBX 9 10 0 0
BITMAP
C180
4300
6300
6200
2200
3600
3400
1400
1C00
1800
ENDCHAR
STARTCHAR 0057
ENCODING 87
SWIDTH 928 0
DWIDTH 13 0
BBX 13 10 0 0
BITMAP
C618
4710
4510
6530
6530
2DA0
28A0
28E0
38E0
18C0
ENDCHAR
STARTCHAR 0058
ENCODING 88
SWIDTH 642 0
DWIDTH 9 0
BBX 9 10 0 0
BITMAP
E380
6300
3600
1400
1C00
1C00
3400
3600
6300
C380
ENDCHAR
STARTCHAR 0059
ENCODING 89
SWIDTH 642 0
DWIDTH 9 0
BBX 8 10 0 0
BITMAP
C3
63
26
34
1C
18
08
08
08
08
ENDCHAR
STARTCHAR 005A
ENCODING 90
SWIDTH 571 0
DWIDTH 8 0
BBX 7 10 1 0
BITMAP
FE
0C
0C
18
30
30
60
40
C0
FE
ENDCHAR
STARTCHAR 005B
ENCODING 91
SWIDTH 357 0
DWIDTH 5 0
BBX 3 13 1 -2
BITMAP
E0
C0
C0
C0
C0
C0
C0
C0
C0
C0
C0
C0
E0
ENDCHAR
STARTCHAR 005C
ENCODING 92
SWIDTH 428 0
DWIDTH 6 0
BBX 5 12 1 -2
BITMAP
80
80
C0
40
40
60
20
20
30
10
10
18
ENDCHAR
STARTCHAR 005D
ENCODING 93
SWIDTH 357 0
DWIDTH 5 0
BBX 2 13 1 -2
BITMAP
C0
40
40
40
40
40
40
40
40
40
40
40
C0
ENDCHAR
STARTCHAR 005E
ENCODING 94
SWIDTH 571 0
DWIDTH 8 0
BBX 7 6 1 4
BITMAP
30
38
68
4C
84
86
ENDCHAR
STARTCHAR 005F
ENCODING 95
SWIDTH 571 0
DWIDTH 8 0
BBX 7 1 0 -2
BITMAP
FE
ENDCHAR
STARTCHAR 0060
ENCODING 96
SWIDTH 571 0
DWIDTH 8 0
BBX 3 3 2 8
BITMAP
40
C0
20
ENDCHAR
STARTCHAR 0061
ENCODING 97
SWIDTH 571 0
DWIDTH 8 0
BBX 6 7 1 0
BITMAP
78
88
0C
FC
8C
8C
FC
ENDCHAR
STARTCHAR 0062
ENCODING 98
SWIDTH 571 0
DWIDTH 8 0
BBX 7 10 1 0
BITMAP
C0
C0
C0
F8
C4
C6
C6
C6
C4
F8
ENDCHAR
STARTCHAR 0063
ENCODING 99
SWIDTH 500 0
DWIDTH 7 0
BBX 6 7 1 0
BITMAP
78
CC
80
80
80
CC
78
ENDCHAR
STARTCHAR 0064
ENCODING 100
SWIDTH 571 0
DWIDTH 8 0
BBX 6 10 1 0
BITMAP
04
04
04
74
CC
84
84
84
CC
74
ENDCHAR
STARTCHAR 0065
ENCODING 101
SWIDTH 571 0
DWIDTH 8 0
BBX 6 7 1 0
BITMAP
78
CC
84
FC
80
C4
78
ENDCHAR
STARTCHAR 0066
ENCODING 102
SWIDTH 357 0
DWIDTH 5 0
BBX 5 10 0 0
BITMAP
38
60
60
F8
60
60
60
60
60
60
ENDCHAR
STARTCHAR 0067
ENCODING 103
SWIDTH 571 0
DWIDTH 8 0
BBX 7 11 0 -3
BITMAP
06
3C
66
46
64
3C
40
7E
42
C2
7E
ENDCHAR
STARTCHAR 0068
ENCODING 104
SWIDTH 571 0
DWIDTH 8 0
BBX 6 10 1 0
BITMAP
C0
C0
C0
F8
CC
C4
C4
C4
C4
C4
ENDCHAR
STARTCHAR 0069
ENCODING 105
SWIDTH 285 0
DWIDTH 4 0
BBX 2 10 1 0
BITMAP
C0
C0
00
C0
C0
C0
C0
C0
C0
C0
ENDCHAR
STARTCHAR 006A
ENCODING 106
SWIDTH 285 0
DWIDTH 4 0
BBX 3 13 0 -3
BITMAP
60
60
00
60
60
60
60
60
60
60
60
60
C0
ENDCHAR
STARTCHAR 006B
ENCODING 107
SWIDTH 571 0
DWIDTH 8 0
BBX 7 10 1 0
BITMAP
C0
C0
C0
CC
D8
F0
F0
D8
CC
CE
ENDCHAR
STARTCHAR 006C
ENCODING 108
SWIDTH 285 0
DWIDTH 4 0
BBX 3 10 1 0
BITMAP
C0
C0
C0
C0
C0
C0
C0
C0
C0
E0
ENDCHAR
STARTCHAR 006D
ENCODING 109
SWIDTH 857 0
DWIDTH 12 0
BBX 10 7 1 0
BITMAP
FBC0
CC40
CC40
CC40
CC40
CC40
CC40
ENDCHAR
STARTCHAR 006E
ENCODING 110
SWIDTH 571 0
DWIDTH 8 0
BBX 6 7 1 0
BITMAP
F8
CC
C4
C4
C4
C4
C4
ENDCHAR
STARTCHAR 006F
ENCODING 111
SWIDTH 571 0
DWIDTH 8 0
BBX 6 7 1 0
BITMAP
78
CC
84
84
84
CC
78
ENDCHAR
STARTCHAR 0070
ENCODING 112
SWIDTH 571 0
DWIDTH 8 0
BBX 7 10 1 -3
BITMAP
F8
C4
C6
C6
C6
C4
F8
C0
C0
C0
ENDCHAR
STARTCHAR 0071
ENCODING 113
SWIDTH 571 0
DWIDTH 8 0
BBX 6 10 1 -3
BITMAP
74
CC
84
84
84
CC
74
04
04
04
ENDCHAR
STARTCHAR 0072
ENCODING 114
SWIDTH 357 0
DWIDTH 5 0
BBX 4 7 1 0
BITMAP
F0
C0
C0
C0
C0
C0
C0
ENDCHAR
STARTCHAR 0073
ENCODING 115
SWIDTH 500 0
DWIDTH 7 0
BBX 6 7 0 0
BITMAP
38
44
40
3C
04
44
F8
ENDCHAR
STARTCHAR 0074
ENCODING 116
SWIDTH 357 0
DWIDTH 5 0
BBX 5 9 0 0
BITMAP
20
20
F8
60
60
60
60
20
30
ENDCHAR
STARTCHAR 0075
ENCODING 117
SWIDTH 571 0
DWIDTH 8 0
BBX 6 7 1 0
BITMAP
CC
CC
CC
CC
CC
CC
7C
ENDCHAR
STARTCHAR 0076
ENCODING 118
SWIDTH 500 0
DWIDTH 7 0
BBX 7 7 0 0
BITMAP
C6
44
64
6C
28
38
38
ENDCHAR
STARTCHAR 0077
ENCODING 119
SWIDTH 785 0
DWIDTH 11 0
BBX 11 7 0 0
BITMAP
C460
4E40
4A40
6A40
2BC0
3180
3180
ENDCHAR
STARTCHAR 0078
ENCODING 120
SWIDTH 500 0
DWIDTH 7 0
BBX 7 7 0 0
BITMAP
C6
6C
38
18
38
6C
C6
ENDCHAR
STARTCHAR 0079
ENCODING 121
SWIDTH 500 0
DWIDTH 7 0
BBX 7 10 0 -3
BITMAP
C6
46
64
6C
28
28
38
10
10
70
ENDCHAR
STARTCHAR 007A
ENCODING 122
SWIDTH 500 0
DWIDTH 7 0
BBX 6 7 0 0
BITMAP
7C
0C
18
30
20
60
FC
ENDCHAR
STARTCHAR 007B
ENCODING 123
SWIDTH 357 0
DWIDTH 5 0
BBX 4 13 0 -2
BITMAP
30
20
20
20
60
E0
C0
E0
60
20
20
20
30
ENDCHAR
STARTCHAR 007C
ENCODING 124
SWIDTH 357 0
DWIDTH 5 0
BBX 1 13 2 -2
BITMAP
80
80
80
80
80
80
80
80
80
80
80
80
80
ENDCHAR
STARTCHAR 007D
ENCODING 125
SWIDTH 357 0
DWIDTH 5 0
BBX 4 13 1 -2
BITMAP
C0
40
40
40
60
70
30
70
60
40
40
40
C0
ENDCHAR
STARTCHAR 007E
ENCODING 126
SWIDTH 571 0
DWIDTH 8 0
BBX 7 2 1 3
BITMAP
E4
9E
ENDCHAR
STARTCHAR 00A0
ENCODING 160
SWIDTH 214 0
DWIDTH 3 0
BBX 0 0 0 0
BITMAP
ENDCHAR
STARTCHAR 00A1
ENCODING 161
SWIDTH 285 0
DWIDTH 4 0
BBX 2 9 1 -2
BITMAP
C0
C0
00
40
40
C0
C0
C0
C0
ENDCHAR
STARTCHAR 00A2
ENCODING 162
SWIDTH 500 0
DWIDTH 7 0
BBX 6 9 1 -1
BITMAP
30
78
EC
A0
A0
A0
EC
78
30
ENDCHAR
STARTCHAR 00A3
ENCODING 163
SWIDTH 571 0
DWIDTH 8 0
BBX 7 10 1 0
BITMAP
3C
46
C0
C0
40
F8
60
60
C0
FE
ENDCHAR
STARTCHAR 00A4
ENCODING 164
SWIDTH 642 0
DWIDTH 9 0
BBX 8 8 0 1
BITMAP
81
7F
22
62
63
22
7F
81
ENDCHAR
STARTCHAR 00A5
ENCODING 165
SWIDTH 642 0
DWIDTH 9 0
BBX 8 10 0 0
BITMAP
C3
63
26
36
14
7F
08
7F
08
08
ENDCHAR
STARTCHAR 00A6
ENCODING 166
SWIDTH 357 0
DWIDTH 5 0
BBX 1 13 2 -2
BITMAP
80
80
80
80
80
00
00
00
80
80
80
80
80
ENDCHAR
STARTCHAR 00A7
ENCODING 167
SWIDTH 571 0
DWIDTH 8 0
BBX 6 12 1 -2
BITMAP
78
CC
C0
60
5C
84
84
78
18
0C
8C
78
ENDCHAR
STARTCHAR 00A8
ENCODING 168
SWIDTH 571 0
DWIDTH 8 0
BBX 4 2 2 8
BITMAP
D0
D0
ENDCHAR
STARTCHAR 00A9
ENCODING 169
SWIDTH 785 0
DWIDTH 11 0
BBX 9 10 1 0
BITMAP
3E00
4300
9C80
B680
A080
A080
B280
9C80
4300
3E00
ENDCHAR
STARTCHAR 00AA
ENCODING 170
SWIDTH 428 0
DWIDTH 6 0
BBX 4 5 1 5
BITMAP
E0
90
F0
90
F0
ENDCHAR
STARTCHAR 00AB
ENCODING 171
SWIDTH 500 0
DWIDTH 7 0
BBX 6 6 1 1
BITMAP
44
E8
90
90
C8
6C
ENDCHAR
STARTCHAR 00AC
ENCODING 172
SWIDTH 571 0
DWIDTH 8 0
BBX 6 4 1 1
BITMAP
FC
04
04
04
ENDCHAR
STARTCHAR 00AD
ENCODING 173
SWIDTH 428 0
DWIDTH 6 0
BBX 4 2 1 3
BITMAP
F0
F0
ENDCHAR
STARTCHAR 00AE
ENCODING 174
SWIDTH 500 0
DWIDTH 7 0
BBX 6 6 0 4
BITMAP
38
44
B4
BC
4C
38
ENDCHAR
STARTCHAR 00AF
ENCODING 175
SWIDTH 571 0
DWIDTH 8 0
BBX 4 1 2 9
BITMAP
F0
ENDCHAR
STARTCHAR 00B0
ENCODING 176
SWIDTH 500 0
DWIDTH 7 0
BBX 5 5 1 5
BITMAP
70
98
88
98
70
ENDCHAR
STARTCHAR 00B1
ENCODING 177
SWIDTH 571 0
DWIDTH 8 0
BBX 6 9 1 0
BITMAP
10
10
10
FC
10
10
10
00
FC
ENDCHAR
STARTCHAR 00B2
ENCODING 178
SWIDTH 357 0
DWIDTH 5 0
BBX 4 5 0 5
BITMAP
70
90
30
60
F0
ENDCHAR
STARTCHAR 00B3
ENCODING 179
SWIDTH 357 0
DWIDTH 5 0
BBX 4 5 0 5
BITMAP
70
90
20
90
70
ENDCHAR
STARTCHAR 00B4
ENCODING 180
SWIDTH 571 0
DWIDTH 8 0
BBX 3 3 3 8
BITMAP
60
40
C0
ENDCHAR
STARTCHAR 00B5
ENCODING 181
SWIDTH 571 0
DWIDTH 8 0
BBX 6 10 1 -3
BITMAP
C4
C4
C4
C4
C4
CC
F4
C0
C0
C0
ENDCHAR
STARTCHAR 00B6
ENCODING 182
SWIDTH 642 0
DWIDTH 9 0
BBX 7 12 1 -2
BITMAP
7E
F4
F4
F4
F4
74
34
34
34
34
34
34
ENDCHAR
STARTCHAR 00B7
ENCODING 183
SWIDTH 357 0
DWIDTH 5 0
BBX 3 2 1 3
BITMAP
E0
E0
ENDCHAR
STARTCHAR 00B8
ENCODING 184
SWIDTH 571 0
DWIDTH 8 0
BBX 3 4 3 -4
BITMAP
40
60
20
E0
ENDCHAR
STARTCHAR 00B9
ENCODING 185
SWIDTH 357 0
DWIDTH 5 0
BBX 5 5 0 5
BITMAP
60
E0
20
20
78
ENDCHAR
STARTCHAR 00BA
ENCODING 186
SWIDTH 428 0
DWIDTH 6 0
BBX 4 5 1 5
BITMAP
E0
90
90
90
E0
ENDCHAR
STARTCHAR 00BB
ENCODING 187
SWIDTH 500 0
DWIDTH 7 0
BBX 6 6 1 1
BITMAP
90
D8
6C
6C
D8
90
ENDCHAR
STARTCHAR 00BC
ENCODING 188
SWIDTH 857 0
DWIDTH 12 0
BBX 12 10 0 0
BITMAP
6040
E080
2180
2100
7A00
0460
04A0
08A0
11F0
3020
ENDCHAR
STARTCHAR 00BD
ENCODING 189
SWIDTH 857 0
DWIDTH 12 0
BBX 11 10 0 0
BITMAP
6040
E080
2100
2300
7A00
04E0
0DA0
0820
10C0
20E0
ENDCHAR
STARTCHAR 00BE
ENCODING 190
SWIDTH 857 0
DWIDTH 12 0
BBX 11 10 0 0
BITMAP
7040
9080
2100
9300
7200
0460
0CA0
0920
11E0
2020
ENDCHAR
STARTCHAR 00BF
ENCODING 191
SWIDTH 500 0
DWIDTH 7 0
BBX 7 10 0 -3
BITMAP
18
18
00
10
30
60
40
C0
46
3C
ENDCHAR
STARTCHAR 00C0
ENCODING 192
SWIDTH 642 0
DWIDTH 9 0
BBX 9 14 0 0
BITMAP
1000
1800
0800
0000
1C00
1C00
1400
3600
3200
2200
7F00
6100
4100
C180
ENDCHAR
STARTCHAR 00C1
ENCODING 193
SWIDTH 642 0
DWIDTH 9 0
BBX 9 14 0 0
BITMAP
0400
0C00
0800
0000
1C00
1C00
1400
3600
3200
2200
7F00
6100
4100
C180
ENDCHAR
STARTCHAR 00C2
ENCODING 194
SWIDTH 642 0
DWIDTH 9 0
BBX 9 14 0 0
BITMAP
1C00
1400
2200
0000
1C00
1C00
1400
3600
3200
2200
7F00
6100
4100
C180
ENDCHAR
STARTCHAR 00C3
ENCODING 195
SWIDTH 642 0
DWIDTH 9 0
BBX 9 13 0 0
BITMAP
1A00
2600
0000
1C00
1C00
1400
3600
3200
2200
7F00
6100
4100
C180
ENDCHAR
STARTCHAR 00C4
ENCODING 196
SWIDTH 642 0
DWIDTH 9 0
BBX 9 13 0 0
BITMAP
3600
3600
0000
1C00
1C00
1400
3600
3200
2200
7F00
6100
4100
C180
ENDCHAR
STARTCHAR 00C5
ENCODING 197
SWIDTH 642 0
DWIDTH 9 0
BBX 9 15 0 0
BITMAP
1C00
1400
1400
1C00
0000
1C00
1C00
1400
3600
3200
2200
7F00
6100
4100
C180
ENDCHAR
STARTCHAR 00C6
ENCODING 198
SWIDTH 928 0
DWIDTH 13 0
BBX 12 10 0 0
BITMAP
07F0
0F00
0B00
1B00
13F0
3300
3F00
6300
4300
C3F0
ENDCHAR
STARTCHAR 00C7
ENCODING 199
SWIDTH 642 0
DWIDTH 9 0
BBX 7 14 1 -4
BITMAP
3C
46
C4
80
80
80
80
C4
46
3C
10
18
0C
38
ENDCHAR
STARTCHAR 00C8
ENCODING 200
SWIDTH 571 0
DWIDTH 8 0
BBX 6 14 1 0
BITMAP
20
30
10
00
FC
C0
C0
C0
FC
C0
C0
C0
C0
FC
ENDCHAR
STARTCHAR 00C9
ENCODING 201
SWIDTH 571 0
DWIDTH 8 0
BBX 6 14 1 0
BITMAP
08
18
10
00
FC
C0
C0
C0
FC
C0
C0
C0
C0
FC
ENDCHAR
STARTCHAR 00CA
ENCODING 202
SWIDTH 571 0
DWIDTH 8 0
BBX 6 14 1 0
BITMAP
30
68
44
00
FC
C0
C0
C0
FC
C0
C0
C0
C0
FC
ENDCHAR
STARTCHAR 00CB
ENCODING 203
SWIDTH 571 0
DWIDTH 8 0
BBX 6 13 1 0
BITMAP
6C
6C
00
FC
C0
C0
C0
FC
C0
C0
C0
C0
FC
ENDCHAR
STARTCHAR 00CC
ENCODING 204
SWIDTH 428 0
DWIDTH 6 0
BBX 4 14 1 0
BITMAP
C0
40
60
00
F0
60
60
60
60
60
60
60
60
F0
ENDCHAR
STARTCHAR 00CD
ENCODING 205
SWIDTH 428 0
DWIDTH 6 0
BBX 4 14 1 0
BITMAP
20
30
40
00
F0
60
60
60
60
60
60
60
60
F0
ENDCHAR
STARTCHAR 00CE
ENCODING 206
SWIDTH 428 0
DWIDTH 6 0
BBX 5 14 0 0
BITMAP
30
78
C8
00
78
30
30
30
30
30
30
30
30
78
ENDCHAR
STARTCHAR 00CF
ENCODING 207
SWIDTH 428 0
DWIDTH 6 0
BBX 4 13 1 0
BITMAP
B0
B0
00
F0
60
60
60
60
60
60
60
60
F0
ENDCHAR
STARTCHAR 00D0
ENCODING 208
SWIDTH 714 0
DWIDTH 10 0
BBX 9 10 0 0
BITMAP
7E00
6300
6100
6180
F980
6180
6180
6100
6300
7E00
ENDCHAR
STARTCHAR 00D1
ENCODING 209
SWIDTH 714 0
DWIDTH 10 0
BBX 8 13 1 0
BITMAP
34
4C
00
C3
E3
E3
F3
DB
DB
CF
C7
C7
C3
ENDCHAR
STARTCHAR 00D2
ENCODING 210
SWIDTH 714 0
DWIDTH 10 0
BBX 8 14 1 0
BITMAP
10
30
18
00
3C
46
C3
C3
83
83
C3
C3
46
3C
ENDCHAR
STARTCHAR 00D3
ENCODING 211
SWIDTH 714 0
DWIDTH 10 0
BBX 8 14 1 0
BITMAP
08
0C
10
00
3C
46
C3
C3
83
83
C3
C3
46
3C
ENDCHAR
STARTCHAR 00D4
ENCODING 212
SWIDTH 714 0
DWIDTH 10 0
BBX 8 14 1 0
BITMAP
18
3C
24
00
3C
46
C3
C3
83
83
C3
C3
46
3C
ENDCHAR
STARTCHAR 00D5
ENCODING 213
SWIDTH 714 0
DWIDTH 10 0
BBX 8 13 1 0
BITMAP
34
4C
00
3C
46
C3
C3
83
83
C3
C3
46
3C
ENDCHAR
STARTCHAR 00D6
ENCODING 214
SWIDTH 714 0
DWIDTH 10 0
BBX 8 13 1 0
BITMAP
24
2C
00
3C
46
C3
C3
83
83
C3
C3
46
3C
ENDCHAR
STARTCHAR 00D7
ENCODING 215
SWIDTH 571 0
DWIDTH 8 0
BBX 6 6 1 1
BITMAP
44
EC
38
38
68
C4
ENDCHAR
STARTCHAR 00D8
ENCODING 216
SWIDTH 714 0
DWIDTH 10 0
BBX 8 12 1 -1
BITMAP
02
3F
46
C7
8D
89
91
B1
E3
66
FC
80
ENDCHAR
STARTCHAR 00D9
ENCODING 217
SWIDTH 714 0
DWIDTH 10 0
BBX 7 14 1 0
BITMAP
30
10
18
00
C2
C2
C2
C2
C2
C2
C2
C2
46
3C
ENDCHAR
STARTCHAR 00DA
ENCODING 218
SWIDTH 714 0
DWIDTH 10 0
BBX 7 14 1 0
BITMAP
08
0C
10
00
C2
C2
C2
C2
C2
C2
C2
C2
46
3C
ENDCHAR
STARTCHAR 00DB
ENCODING 219
SWIDTH 714 0
DWIDTH 10 0
BBX 7 14 1 0
BITMAP
18
2C
64
00
C2
C2
C2
C2
C2
C2
C2
C2
46
3C
ENDCHAR
STARTCHAR 00DC
ENCODING 220
SWIDTH 714 0
DWIDTH 10 0
BBX 7 13 1 0
BITMAP
2C
2C
00
C2
C2
C2
C2
C2
C2
C2
C2
46
3C
ENDCHAR
STARTCHAR 00DD
ENCODING 221
SWIDTH 642 0
DWIDTH 9 0
BBX 8 14 0 0
BITMAP
04
0C
08
00
C3
63
26
34
1C
18
08
08
08
08
ENDCHAR
STARTCHAR 00DE
ENCODING 222
SWIDTH 642 0
DWIDTH 9 0
BBX 7 10 1 0
BITMAP
C0
C0
FC
C6
C2
C2
C6
FC
C0
C0
ENDCHAR
STARTCHAR 00DF
ENCODING 223
SWIDTH 642 0
DWIDTH 9 0
BBX 9 10 0 0
BITMAP
1E00
2300
6300
E700
6C00
6C00
6700
6180
6980
6F00
ENDCHAR
STARTCHAR 00E0
ENCODING 224
SWIDTH 571 0
DWIDTH 8 0
BBX 6 11 1 0
BITMAP
40
60
20
00
78
88
0C
FC
8C
8C
FC
ENDCHAR
STARTCHAR 00E1
ENCODING 225
SWIDTH 571 0
DWIDTH 8 0
BBX 6 11 1 0
BITMAP
10
30
20
00
78
88
0C
FC
8C
8C
FC
ENDCHAR
STARTCHAR 00E2
ENCODING 226
SWIDTH 571 0
DWIDTH 8 0
BBX 6 11 1 0
BITMAP
30
50
88
00
78
88
0C
FC
8C
8C
FC
ENDCHAR
STARTCHAR 00E3
ENCODING 227
SWIDTH 571 0
DWIDTH 8 0
BBX 6 10 1 0
BITMAP
68
98
00
78
88
0C
FC
8C
8C
FC
ENDCHAR
STARTCHAR 00E4
ENCODING 228
SWIDTH 571 0
DWIDTH 8 0
BBX 6 10 1 0
BITMAP
D8
D8
00
78
88
0C
FC
8C
8C
FC
ENDCHAR
STARTCHAR 00E5
ENCODING 229
SWIDTH 571 0
DWIDTH 8 0
BBX 6 12 1 0
BITMAP
70
50
50
70
00
78
88
0C
FC
8C
8C
FC
ENDCHAR
STARTCHAR 00E6
ENCODING 230
SWIDTH 857 0
DWIDTH 12 0
BBX 11 7 1 0
BITMAP
7780
8CC0
0C40
FFE0
8C00
8C40
F780
ENDCHAR
STARTCHAR 00E7
ENCODING 231
SWIDTH 500 0
DWIDTH 7 0
BBX 6 11 1 -4
BITMAP
78
CC
80
80
80
CC
78
20
30
08
70
ENDCHAR
STARTCHAR 00E8
ENCODING 232
SWIDTH 571 0
DWIDTH 8 0
BBX 6 11 1 0
BITMAP
60
20
30
00
78
CC
84
FC
80
C4
78
ENDCHAR
STARTCHAR 00E9
ENCODING 233
SWIDTH 571 0
DWIDTH 8 0
BBX 6 11 1 0
BITMAP
10
18
20
00
78
CC
84
FC
80
C4
78
ENDCHAR
STARTCHAR 00EA
ENCODING 234
SWIDTH 571 0
DWIDTH 8 0
BBX 6 11 1 0
BITMAP
30
78
48
00
78
CC
84
FC
80
C4
78
ENDCHAR
STARTCHAR 00EB
ENCODING 235
SWIDTH 571 0
DWIDTH 8 0
BBX 6 10 1 0
BITMAP
48
48
00
78
CC
84
FC
80
C4
78
ENDCHAR
STARTCHAR 00EC
ENCODING 236
SWIDTH 285 0
DWIDTH 4 0
BBX 3 11 0 0
BITMAP
C0
40
60
00
60
60
60
60
60
60
60
ENDCHAR
STARTCHAR 00ED
ENCODING 237
SWIDTH 285 0
DWIDTH 4 0
BBX 3 11 1 0
BITMAP
40
60
80
00
C0
C0
C0
C0
C0
C0
C0
ENDCHAR
STARTCHAR 00EE
ENCODING 238
SWIDTH 285 0
DWIDTH 4 0
BBX 5 11 -1 0
BITMAP
30
58
C8
00
30
30
30
30
30
30
30
ENDCHAR
STARTCHAR 00EF
ENCODING 239
SWIDTH 285 0
DWIDTH 4 0
BBX 4 10 0 0
BITMAP
B0
B0
00
60
60
60
60
60
60
60
ENDCHAR
STARTCHAR 00F0
ENCODING 240
SWIDTH 571 0
DWIDTH 8 0
BBX 6 10 1 0
BITMAP
E8
30
78
0C
74
CC
84
84
CC
78
ENDCHAR
STARTCHAR 00F1
ENCODING 241
SWIDTH 571 0
DWIDTH 8 0
BBX 6 10 1 0
BITMAP
68
9C
00
F8
CC
C4
C4
C4
C4
C4
ENDCHAR
STARTCHAR 00F2
ENCODING 242
SWIDTH 571 0
DWIDTH 8 0
BBX 6 11 1 0
BITMAP
60
20
30
00
78
CC
84
84
84
CC
78
ENDCHAR
STARTCHAR 00F3
ENCODING 243
SWIDTH 571 0
DWIDTH 8 0
BBX 6 11 1 0
BITMAP
10
18
20
00
78
CC
84
84
84
CC
78
ENDCHAR
STARTCHAR 00F4
ENCODING 244
SWIDTH 571 0
DWIDTH 8 0
BBX 6 11 1 0
BITMAP
30
78
C8
00
78
CC
84
84
84
CC
78
ENDCHAR
STARTCHAR 00F5
ENCODING 245
SWIDTH 571 0
DWIDTH 8 0
BBX 6 10 1 0
BITMAP
68
98
00
78
CC
84
84
84
CC
78
ENDCHAR
STARTCHAR 00F6
ENCODING 246
SWIDTH 571 0
DWIDTH 8 0
BBX 6 10 1 0
BITMAP
48
58
00
78
CC
84
84
84
CC
78
ENDCHAR
STARTCHAR 00F7
ENCODING 247
SWIDTH 571 0
DWIDTH 8 0
BBX 6 7 1 1
BITMAP
30
30
00
FC
00
30
30
ENDCHAR
STARTCHAR 00F8
ENCODING 248
SWIDTH 571 0
DWIDTH 8 0
BBX 8 7 0 0
BITMAP
3F
66
4A
5A
52
66
FC
ENDCHAR
STARTCHAR 00F9
ENCODING 249
SWIDTH 571 0
DWIDTH 8 0
BBX 6 11 1 0
BITMAP
20
60
10
00
CC
CC
CC
CC
CC
CC
7C
ENDCHAR
STARTCHAR 00FA
ENCODING 250
SWIDTH 571 0
DWIDTH 8 0
BBX 6 11 1 0
BITMAP
18
10
30
00
CC
CC
CC
CC
CC
CC
7C
ENDCHAR
STARTCHAR 00FB
ENCODING 251
SWIDTH 571 0
DWIDTH 8 0
BBX 6 11 1 0
BITMAP
30
78
4C
00
CC
CC
CC
CC
CC
CC
7C
ENDCHAR
STARTCHAR 00FC
ENCODING 252
SWIDTH 571 0
DWIDTH 8 0
BBX 6 10 1 0
BITMAP
48
68
00
CC
CC
CC
CC
CC
CC
7C
ENDCHAR
STARTCHAR 00FD
ENCODING 253
SWIDTH 500 0
DWIDTH 7 0
BBX 7 14 0 -3
BITMAP
08
18
10
00
C6
46
64
6C
28
28
38
10
10
70
ENDCHAR
STARTCHAR 00FE
ENCODING 254
SWIDTH 571 0
DWIDTH 8 0
BBX 7 13 1 -3
BITMAP
C0
C0
C0
F8
C4
C6
C6
C6
C4
F8
C0
C0
C0
ENDCHAR
STARTCHAR 00FF
ENCODING 255
SWIDTH 500 0
DWIDTH 7 0
BBX 7 13 0 -3
BITMAP
6C
6C
00
C6
46
64
6C
28
28
38
10
10
70
ENDCHAR
STARTCHAR 0100
ENCODING 256
SWIDTH 642 0
DWIDTH 9 0
BBX 9 12 0 0
BITMAP
1E00
0000
1C00
1C00
1400
3600
3200
2200
7F00
6100
4100
C180
ENDCHAR
STARTCHAR 0101
ENCODING 257
SWIDTH 571 0
DWIDTH 8 0
BBX 6 10 1 0
BITMAP
78
00
00
78
88
0C
FC
8C
8C
FC
ENDCHAR
STARTCHAR 0102
ENCODING 258
SWIDTH 642 0
DWIDTH 9 0
BBX 9 13 0 0
BITMAP
3200
1C00
0000
1C00
1C00
1400
3600
3200
2200
7F00
6100
4100
C180
ENDCHAR
STARTCHAR 0103
ENCODING 259
SWIDTH 571 0
DWIDTH 8 0
BBX 6 10 1 0
BITMAP
C8
70
00
78
88
0C
FC
8C
8C
FC
ENDCHAR
STARTCHAR 0104
ENCODING 260
SWIDTH 642 0
DWIDTH 9 0
BBX 9 14 0 -4
BITMAP
1C00
1C00
1400
3600
3200
2200
7F00
6100
4100
C180
0180
0100
0280
0180
ENDCHAR
STARTCHAR 0105
ENCODING 261
SWIDTH 571 0
DWIDTH 8 0
BBX 7 11 1 -4
BITMAP
78
88
0C
FC
8C
8C
FC
04
08
0C
0E
ENDCHAR
STARTCHAR 0106
ENCODING 262
SWIDTH 642 0
DWIDTH 9 0
BBX 7 14 1 0
BITMAP
08
0C
10
00
3C
46
C4
80
80
80
80
C4
46
3C
ENDCHAR
STARTCHAR 0107
ENCODING 263
SWIDTH 500 0
DWIDTH 7 0
BBX 6 11 1 0
BITMAP
10
18
20
00
78
CC
80
80
80
CC
78
ENDCHAR
STARTCHAR 0108
ENCODING 264
SWIDTH 642 0
DWIDTH 9 0
BBX 7 14 1 0
BITMAP
18
2C
64
00
3C
46
C4
80
80
80
80
C4
46
3C
ENDCHAR
STARTCHAR 0109
ENCODING 265
SWIDTH 500 0
DWIDTH 7 0
BBX 6 11 1 0
BITMAP
30
58
C8
00
78
CC
80
80
80
CC
78
ENDCHAR
STARTCHAR 010A
ENCODING 266
SWIDTH 642 0
DWIDTH 9 0
BBX 7 13 1 0
BITMAP
18
18
00
3C
46
C4
80
80
80
80
C4
46
3C
ENDCHAR
STARTCHAR 010B
ENCODING 267
SWIDTH 500 0
DWIDTH 7 0
BBX 6 10 1 0
BITMAP
30
30
00
78
CC
80
80
80
CC
78
ENDCHAR
STARTCHAR 010C
ENCODING 268
SWIDTH 642 0
DWIDTH 9 0
BBX 7 14 1 0
BITMAP
24
6C
18
00
3C
46
C4
80
80
80
80
C4
46
3C
ENDCHAR
STARTCHAR 010D
ENCODING 269
SWIDTH 500 0
DWIDTH 7 0
BBX 6 11 1 0
BITMAP
48
D8
30
00
78
CC
80
80
80
CC
78
ENDCHAR
STARTCHAR 010E
ENCODING 270
SWIDTH 714 0
DWIDTH 10 0
BBX 8 14 1 0
BITMAP
44
28
38
00
FC
C6
C2
C3
C3
C3
C3
C2
C6
FC
ENDCHAR
STARTCHAR 010F
ENCODING 271
SWIDTH 642 0
DWIDTH 9 0
BBX 9 10 1 0
BITMAP
0580
0500
0500
7400
CC00
8400
8400
8400
CC00
7400
ENDCHAR
STARTCHAR 0110
ENCODING 272
SWIDTH 714 0
DWIDTH 10 0
BBX 9 10 0 0
BITMAP
7E00
6300
6100
6180
F980
6180
6180
6100
6300
7E00
ENDCHAR
STARTCHAR 0111
ENCODING 273
SWIDTH 571 0
DWIDTH 8 0
BBX 7 10 1 0
BITMAP
04
1E
04
74
CC
84
84
84
CC
74
ENDCHAR
STARTCHAR 0112
ENCODING 274
SWIDTH 571 0
DWIDTH 8 0
BBX 6 12 1 0
BITMAP
78
00
FC
C0
C0
C0
FC
C0
C0
C0
C0
FC
ENDCHAR
STARTCHAR 0113
ENCODING 275
SWIDTH 571 0
DWIDTH 8 0
BBX 6 10 1 0
BITMAP
78
00
00
78
CC
84
FC
80
C4
78
ENDCHAR
STARTCHAR 0114
ENCODING 276
SWIDTH 571 0
DWIDTH 8 0
BBX 6 13 1 0
BITMAP
4C
38
00
FC
C0
C0
C0
FC
C0
C0
C0
C0
FC
ENDCHAR
STARTCHAR 0115
ENCODING 277
SWIDTH 571 0
DWIDTH 8 0
BBX 6 10 1 0
BITMAP
48
78
00
78
CC
84
FC
80
C4
78
ENDCHAR
STARTCHAR 0116
ENCODING 278
SWIDTH 571 0
DWIDTH 8 0
BBX 6 13 1 0
BITMAP
30
30
00
FC
C0
C0
C0
FC
C0
C0
C0
C0
FC
ENDCHAR
STARTCHAR 0117
ENCODING 279
SWIDTH 571 0
DWIDTH 8 0
BBX 6 10 1 0
BITMAP
30
30
00
78
CC
84
FC
80
C4
78
ENDCHAR
STARTCHAR 0118
ENCODING 280
SWIDTH 571 0
DWIDTH 8 0
BBX 7 14 1 -4
BITMAP
FC
C0
C0
C0
FC
C0
C0
C0
C0
FC
04
08
0A
0E
ENDCHAR
STARTCHAR 0119
ENCODING 281
SWIDTH 571 0
DWIDTH 8 0
BBX 6 11 1 -4
BITMAP
78
CC
84
FC
80
C4
78
10
10
28
18
ENDCHAR
STARTCHAR 011A
ENCODING 282
SWIDTH 571 0
DWIDTH 8 0
BBX 6 14 1 0
BITMAP
44
68
30
00
FC
C0
C0
C0
FC
C0
C0
C0
C0
FC
ENDCHAR
STARTCHAR 011B
ENCODING 283
SWIDTH 571 0
DWIDTH 8 0
BBX 6 11 1 0
BITMAP
48
78
30
00
78
CC
84
FC
80
C4
78
ENDCHAR
STARTCHAR 011C
ENCODING 284
SWIDTH 714 0
DWIDTH 10 0
BBX 8 14 1 0
BITMAP
18
3C
24
00
3C
42
C3
C0
80
8F
C3
C3
43
3F
ENDCHAR
STARTCHAR 011D
ENCODING 285
SWIDTH 571 0
DWIDTH 8 0
BBX 7 14 0 -3
BITMAP
18
2C
64
00
3E
66
46
64
3C
40
7E
42
C2
7E
ENDCHAR
STARTCHAR 011E
ENCODING 286
SWIDTH 714 0
DWIDTH 10 0
BBX 8 13 1 0
BITMAP
24
3C
00
3C
42
C3
C0
80
8F
C3
C3
43
3F
ENDCHAR
STARTCHAR 011F
ENCODING 287
SWIDTH 571 0
DWIDTH 8 0
BBX 7 13 0 -3
BITMAP
64
38
00
3E
66
46
64
3C
40
7E
42
C2
7E
ENDCHAR
STARTCHAR 0120
ENCODING 288
SWIDTH 714 0
DWIDTH 10 0
BBX 8 13 1 0
BITMAP
18
18
00
3C
42
C3
C0
80
8F
C3
C3
43
3F
ENDCHAR
STARTCHAR 0121
ENCODING 289
SWIDTH 571 0
DWIDTH 8 0
BBX 7 13 0 -3
BITMAP
18
18
00
3E
66
46
64
3C
40
7E
42
C2
7E
ENDCHAR
STARTCHAR 0122
ENCODING 290
SWIDTH 714 0
DWIDTH 10 0
BBX 8 14 1 -4
BITMAP
3C
42
C3
C0
80
8F
C3
C3
43
3F
00
18
18
10
ENDCHAR
STARTCHAR 0123
ENCODING 291
SWIDTH 571 0
DWIDTH 8 0
BBX 7 15 0 -3
BITMAP
18
18
18
00
00
3E
66
46
64
3C
40
7E
42
C2
7E
ENDCHAR
STARTCHAR 0124
ENCODING 292
SWIDTH 714 0
DWIDTH 10 0
BBX 8 14 1 0
BITMAP
18
3C
24
00
C3
C3
C3
C3
FF
C3
C3
C3
C3
C3
ENDCHAR
STARTCHAR 0125
ENCODING 293
SWIDTH 571 0
DWIDTH 8 0
BBX 8 14 -1 0
BITMAP
30
58
C8
00
30
30
30
3E
33
31
31
31
31
31
ENDCHAR
STARTCHAR 0126
ENCODING 294
SWIDTH 714 0
DWIDTH 10 0
BBX 10 10 0 0
BITMAP
6180
FFC0
6180
6180
7F80
6180
6180
6180
6180
6180
ENDCHAR
STARTCHAR 0127
ENCODING 295
SWIDTH 571 0
DWIDTH 8 0
BBX 7 10 0 0
BITMAP
60
F8
60
7C
66
62
62
62
62
62
ENDCHAR
STARTCHAR 0128
ENCODING 296
SWIDTH 428 0
DWIDTH 6 0
BBX 5 13 0 0
BITMAP
68
98
00
78
30
30
30
30
30
30
30
30
78
ENDCHAR
STARTCHAR 0129
ENCODING 297
SWIDTH 285 0
DWIDTH 4 0
BBX 5 10 -1 0
BITMAP
68
98
00
30
30
30
30
30
30
30
ENDCHAR
STARTCHAR 012A
ENCODING 298
SWIDTH 428 0
DWIDTH 6 0
BBX 4 12 1 0
BITMAP
F0
00
F0
60
60
60
60
60
60
60
60
F0
ENDCHAR
STARTCHAR 012B
ENCODING 299
SWIDTH 285 0
DWIDTH 4 0
BBX 4 10 0 0
BITMAP
F0
00
00
60
60
60
60
60
60
60
ENDCHAR
STARTCHAR 012C
ENCODING 300
SWIDTH 428 0
DWIDTH 6 0
BBX 4 13 1 0
BITMAP
90
E0
00
F0
60
60
60
60
60
60
60
60
F0
ENDCHAR
STARTCHAR 012D
ENCODING 301
SWIDTH 285 0
DWIDTH 4 0
BBX 5 10 -1 0
BITMAP
C8
70
00
30
30
30
30
30
30
30
ENDCHAR
STARTCHAR 012E
ENCODING 302
SWIDTH 428 0
DWIDTH 6 0
BBX 4 14 1 -4
BITMAP
F0
60
60
60
60
60
60
60
60
F0
30
20
70
30
ENDCHAR
STARTCHAR 012F
ENCODING 303
SWIDTH 285 0
DWIDTH 4 0
BBX 3 14 0 -4
BITMAP
60
60
00
60
60
60
60
60
60
60
40
80
A0
E0
ENDCHAR
STARTCHAR 0130
ENCODING 304
SWIDTH 428 0
DWIDTH 6 0
BBX 4 13 1 0
BITMAP
60
60
00
F0
60
60
60
60
60
60
60
60
F0
ENDCHAR
STARTCHAR 0131
ENCODING 305
SWIDTH 285 0
DWIDTH 4 0
BBX 2 7 1 0
BITMAP
C0
C0
C0
C0
C0
C0
C0
ENDCHAR
STARTCHAR 0132
ENCODING 306
SWIDTH 642 0
DWIDTH 9 0
BBX 7 10 1 0
BITMAP
CE
C6
C6
C6
C6
C6
06
06
C6
7C
ENDCHAR
STARTCHAR 0133
ENCODING 307
SWIDTH 500 0
DWIDTH 7 0
BBX 5 13 1 -3
BITMAP
C8
C8
00
C8
C8
C8
C8
C8
C8
C8
08
08
18
ENDCHAR
STARTCHAR 0134
ENCODING 308
SWIDTH 500 0
DWIDTH 7 0
BBX 6 14 0 0
BITMAP
18
3C
64
00
3C
04
04
04
04
04
04
04
CC
78
ENDCHAR
STARTCHAR 0135
ENCODING 309
SWIDTH 285 0
DWIDTH 4 0
BBX 5 14 -1 -3
BITMAP
30
58
C8
00
30
30
30
30
30
30
30
30
30
60
ENDCHAR
STARTCHAR 0136
ENCODING 310
SWIDTH 642 0
DWIDTH 9 0
BBX 8 14 1 -4
BITMAP
C7
C4
CC
D8
F0
F8
CC
CC
C6
C3
00
18
18
10
ENDCHAR
STARTCHAR 0137
ENCODING 311
SWIDTH 571 0
DWIDTH 8 0
BBX 7 14 1 -4
BITMAP
C0
C0
C0
CC
D8
F0
F0
D8
CC
CC
02
30
30
30
ENDCHAR
STARTCHAR 0138
ENCODING 312
SWIDTH 571 0
DWIDTH 8 0
BBX 7 7 1 0
BITMAP
CC
D8
F0
F0
D8
CC
CE
ENDCHAR
STARTCHAR 0139
ENCODING 313
SWIDTH 500 0
DWIDTH 7 0
BBX 6 14 1 0
BITMAP
40
60
C0
00
C0
C0
C0
C0
C0
C0
C0
C0
C0
FC
ENDCHAR
STARTCHAR 013A
ENCODING 314
SWIDTH 285 0
DWIDTH 4 0
BBX 3 14 1 0
BITMAP
40
60
80
00
C0
C0
C0
C0
C0
C0
C0
C0
C0
E0
ENDCHAR
STARTCHAR 013B
ENCODING 315
SWIDTH 500 0
DWIDTH 7 0
BBX 6 14 1 -4
BITMAP
C0
C0
C0
C0
C0
C0
C0
C0
C0
FC
00
30
30
20
ENDCHAR
STARTCHAR 013C
ENCODING 316
SWIDTH 285 0
DWIDTH 4 0
BBX 3 14 1 -4
BITMAP
C0
C0
C0
C0
C0
C0
C0
C0
C0
E0
00
40
40
C0
ENDCHAR
STARTCHAR 013D
ENCODING 317
SWIDTH 500 0
DWIDTH 7 0
BBX 6 10 1 0
BITMAP
D8
D0
D0
C0
C0
C0
C0
C0
C0
FC
ENDCHAR
STARTCHAR 013E
ENCODING 318
SWIDTH 285 0
DWIDTH 4 0
BBX 4 10 1 0
BITMAP
D0
F0
F0
C0
C0
C0
C0
C0
C0
E0
ENDCHAR
STARTCHAR 013F
ENCODING 319
SWIDTH 500 0
DWIDTH 7 0
BBX 6 10 1 0
BITMAP
C0
C0
C0
C0
C8
CC
C0
C0
C0
FC
ENDCHAR
STARTCHAR 0140
ENCODING 320
SWIDTH 428 0
DWIDTH 6 0
BBX 5 10 1 0
BITMAP
C0
C0
C0
C0
C0
D8
D8
C0
C0
E0
ENDCHAR
STARTCHAR 0141
ENCODING 321
SWIDTH 500 0
DWIDTH 7 0
BBX 7 10 0 0
BITMAP
60
60
60
60
78
E0
E0
60
60
7E
ENDCHAR
STARTCHAR 0142
ENCODING 322
SWIDTH 285 0
DWIDTH 4 0
BBX 4 10 0 0
BITMAP
60
60
60
60
70
E0
60
60
60
70
ENDCHAR
STARTCHAR 0143
ENCODING 323
SWIDTH 714 0
DWIDTH 10 0
BBX 8 14 1 0
BITMAP
08
0C
18
00
C3
E3
E3
F3
DB
DB
CF
C7
C7
C3
ENDCHAR
STARTCHAR 0144
ENCODING 324
SWIDTH 571 0
DWIDTH 8 0
BBX 6 11 1 0
BITMAP
18
10
30
00
F8
CC
C4
C4
C4
C4
C4
ENDCHAR
STARTCHAR 0145
ENCODING 325
SWIDTH 714 0
DWIDTH 10 0
BBX 8 14 1 -4
BITMAP
C3
E3
E3
F3
DB
DB
CF
C7
C7
C3
00
18
18
10
ENDCHAR
STARTCHAR 0146
ENCODING 326
SWIDTH 571 0
DWIDTH 8 0
BBX 6 11 1 -4
BITMAP
F8
CC
C4
C4
C4
C4
C4
00
30
30
20
ENDCHAR
STARTCHAR 0147
ENCODING 327
SWIDTH 714 0
DWIDTH 10 0
BBX 8 14 1 0
BITMAP
24
3C
18
00
C3
E3
E3
F3
DB
DB
CF
C7
C7
C3
ENDCHAR
STARTCHAR 0148
ENCODING 328
SWIDTH 571 0
DWIDTH 8 0
BBX 6 11 1 0
BITMAP
48
6C
30
00
F8
CC
C4
C4
C4
C4
C4
ENDCHAR
STARTCHAR 0149
ENCODING 329
SWIDTH 857 0
DWIDTH 12 0
BBX 10 10 1 0
BITMAP
C000
C000
4000
8B80
0CC0
08C0
08C0
08C0
08C0
08C0
ENDCHAR
STARTCHAR 014A
ENCODING 330
SWIDTH 714 0
DWIDTH 10 0
BBX 8 13 1 -3
BITMAP
C3
E3
E3
F3
DB
DB
CF
C7
C7
C3
03
03
06
ENDCHAR
STARTCHAR 014B
ENCODING 331
SWIDTH 571 0
DWIDTH 8 0
BBX 6 10 1 -3
BITMAP
F8
CC
C4
C4
C4
C4
C4
04
04
1C
ENDCHAR
STARTCHAR 014C
ENCODING 332
SWIDTH 714 0
DWIDTH 10 0
BBX 8 12 1 0
BITMAP
3C
00
3C
46
C3
C3
83
83
C3
C3
46
3C
ENDCHAR
STARTCHAR 014D
ENCODING 333
SWIDTH 571 0
DWIDTH 8 0
BBX 6 10 1 0
BITMAP
78
00
00
78
CC
84
84
84
CC
78
ENDCHAR
STARTCHAR 014E
ENCODING 334
SWIDTH 714 0
DWIDTH 10 0
BBX 8 13 1 0
BITMAP
24
3C
00
3C
46
C3
C3
83
83
C3
C3
46
3C
ENDCHAR
STARTCHAR 014F
ENCODING 335
SWIDTH 571 0
DWIDTH 8 0
BBX 6 10 1 0
BITMAP
48
78
00
78
CC
84
84
84
CC
78
ENDCHAR
STARTCHAR 0150
ENCODING 336
SWIDTH 714 0
DWIDTH 10 0
BBX 8 14 1 0
BITMAP
12
1C
24
08
3C
46
C3
C3
83
83
C3
C3
46
3C
ENDCHAR
STARTCHAR 0151
ENCODING 337
SWIDTH 571 0
DWIDTH 8 0
BBX 6 11 1 0
BITMAP
24
28
48
10
78
CC
84
84
84
CC
78
ENDCHAR
STARTCHAR 0152
ENCODING 338
SWIDTH 1000 0
DWIDTH 14 0
BBX 12 10 1 0
BITMAP
3FF0
4200
C200
C200
83F0
8200
C200
C200
4200
3FF0
ENDCHAR
STARTCHAR 0153
ENCODING 339
SWIDTH 928 0
DWIDTH 13 0
BBX 11 7 1 0
BITMAP
7BC0
CE60
8420
87E0
8400
CE20
7BC0
ENDCHAR
STARTCHAR 0154
ENCODING 340
SWIDTH 642 0
DWIDTH 9 0
BBX 7 14 1 0
BITMAP
08
18
10
00
FC
C6
C2
C2
C6
F8
CC
C4
C6
C6
ENDCHAR
STARTCHAR 0155
ENCODING 341
SWIDTH 357 0
DWIDTH 5 0
BBX 4 11 1 0
BITMAP
30
20
60
00
F0
C0
C0
C0
C0
C0
C0
ENDCHAR
STARTCHAR 0156
ENCODING 342
SWIDTH 642 0
DWIDTH 9 0
BBX 7 14 1 -4
BITMAP
FC
C6
C2
C2
C6
F8
CC
C4
C6
C6
00
10
18
10
ENDCHAR
STARTCHAR 0157
ENCODING 343
SWIDTH 357 0
DWIDTH 5 0
BBX 4 11 1 -4
BITMAP
F0
C0
C0
C0
C0
C0
C0
00
C0
C0
80
ENDCHAR
STARTCHAR 0158
ENCODING 344
SWIDTH 642 0
DWIDTH 9 0
BBX 7 14 1 0
BITMAP
44
28
38
00
FC
C6
C2
C2
C6
F8
CC
C4
C6
C6
ENDCHAR
STARTCHAR 0159
ENCODING 345
SWIDTH 357 0
DWIDTH 5 0
BBX 5 11 1 0
BITMAP
90
D8
60
00
F0
C0
C0
C0
C0
C0
C0
ENDCHAR
STARTCHAR 015A
ENCODING 346
SWIDTH 571 0
DWIDTH 8 0
BBX 7 14 1 0
BITMAP
18
10
30
00
78
C6
80
C0
70
0C
06
86
C4
78
ENDCHAR
STARTCHAR 015B
ENCODING 347
SWIDTH 500 0
DWIDTH 7 0
BBX 6 11 0 0
BITMAP
08
18
10
00
38
44
40
3C
04
44
F8
ENDCHAR
STARTCHAR 015C
ENCODING 348
SWIDTH 571 0
DWIDTH 8 0
BBX 7 14 1 0
BITMAP
30
68
4C
00
78
C6
80
C0
70
0C
06
86
C4
78
ENDCHAR
STARTCHAR 015D
ENCODING 349
SWIDTH 500 0
DWIDTH 7 0
BBX 6 11 0 0
BITMAP
38
28
44
00
38
44
40
3C
04
44
F8
ENDCHAR
STARTCHAR 015E
ENCODING 350
SWIDTH 571 0
DWIDTH 8 0
BBX 7 14 1 -4
BITMAP
7C
C6
80
C0
70
0C
06
06
84
78
20
18
28
38
ENDCHAR
STARTCHAR 015F
ENCODING 351
SWIDTH 500 0
DWIDTH 7 0
BBX 6 11 0 -4
BITMAP
38
44
40
7C
04
44
F8
10
18
08
38
ENDCHAR
STARTCHAR 0160
ENCODING 352
SWIDTH 571 0
DWIDTH 8 0
BBX 7 14 1 0
BITMAP
48
6C
30
00
78
C6
80
C0
70
0C
06
86
C4
78
ENDCHAR
STARTCHAR 0161
ENCODING 353
SWIDTH 500 0
DWIDTH 7 0
BBX 6 11 0 0
BITMAP
44
28
38
00
38
44
40
3C
04
44
F8
ENDCHAR
STARTCHAR 0162
ENCODING 354
SWIDTH 571 0
DWIDTH 8 0
BBX 8 14 0 -4
BITMAP
FF
18
18
18
18
18
18
18
18
18
10
1C
04
18
ENDCHAR
STARTCHAR 0163
ENCODING 355
SWIDTH 357 0
DWIDTH 5 0
BBX 5 13 0 -4
BITMAP
20
20
F8
60
60
60
60
20
30
20
18
28
38
ENDCHAR
STARTCHAR 0164
ENCODING 356
SWIDTH 571 0
DWIDTH 8 0
BBX 8 14 0 0
BITMAP
24
3E
18
00
FF
18
18
18
18
18
18
18
18
18
ENDCHAR
STARTCHAR 0165
ENCODING 357
SWIDTH 357 0
DWIDTH 5 0
BBX 6 10 0 0
BITMAP
0C
28
28
F8
60
60
60
60
20
30
ENDCHAR
STARTCHAR 0166
ENCODING 358
SWIDTH 571 0
DWIDTH 8 0
BBX 8 10 0 0
BITMAP
FF
18
18
18
7E
18
18
18
18
18
ENDCHAR
STARTCHAR 0167
ENCODING 359
SWIDTH 357 0
DWIDTH 5 0
BBX 5 9 0 0
BITMAP
20
20
F8
20
20
70
20
20
30
ENDCHAR
STARTCHAR 0168
ENCODING 360
SWIDTH 714 0
DWIDTH 10 0
BBX 7 13 1 0
BITMAP
34
4C
00
C2
C2
C2
C2
C2
C2
C2
C2
46
3C
ENDCHAR
STARTCHAR 0169
ENCODING 361
SWIDTH 571 0
DWIDTH 8 0
BBX 6 10 1 0
BITMAP
68
9C
00
CC
CC
CC
CC
CC
CC
7C
ENDCHAR
STARTCHAR 016A
ENCODING 362
SWIDTH 714 0
DWIDTH 10 0
BBX 7 12 1 0
BITMAP
3C
00
C2
C2
C2
C2
C2
C2
C2
C2
46
3C
ENDCHAR
STARTCHAR 016B
ENCODING 363
SWIDTH 571 0
DWIDTH 8 0
BBX 6 10 1 0
BITMAP
78
00
00
CC
CC
CC
CC
CC
CC
7C
ENDCHAR
STARTCHAR 016C
ENCODING 364
SWIDTH 714 0
DWIDTH 10 0
BBX 7 13 1 0
BITMAP
64
38
00
C2
C2
C2
C2
C2
C2
C2
C2
46
3C
ENDCHAR
STARTCHAR 016D
ENCODING 365
SWIDTH 571 0
DWIDTH 8 0
BBX 6 10 1 0
BITMAP
48
78
00
CC
CC
CC
CC
CC
CC
7C
ENDCHAR
STARTCHAR 016E
ENCODING 366
SWIDTH 714 0
DWIDTH 10 0
BBX 7 15 1 0
BITMAP
18
24
24
18
00
C2
C2
C2
C2
C2
C2
C2
C2
46
3C
ENDCHAR
STARTCHAR 016F
ENCODING 367
SWIDTH 571 0
DWIDTH 8 0
BBX 6 12 1 0
BITMAP
30
48
48
30
00
CC
CC
CC
CC
CC
CC
7C
ENDCHAR
STARTCHAR 0170
ENCODING 368
SWIDTH 714 0
DWIDTH 10 0
BBX 7 14 1 0
BITMAP
14
36
2C
00
C2
C2
C2
C2
C2
C2
C2
C2
46
3C
ENDCHAR
STARTCHAR 0171
ENCODING 369
SWIDTH 571 0
DWIDTH 8 0
BBX 6 11 1 0
BITMAP
24
38
48
00
CC
CC
CC
CC
CC
CC
7C
ENDCHAR
STARTCHAR 0172
ENCODING 370
SWIDTH 714 0
DWIDTH 10 0
BBX 7 14 1 -4
BITMAP
C2
C2
C2
C2
C2
C2
C2
C2
46
3E
0C
08
1C
0C
ENDCHAR
STARTCHAR 0173
ENCODING 371
SWIDTH 571 0
DWIDTH 8 0
BBX 6 11 1 -4
BITMAP
CC
CC
CC
CC
CC
CC
7C
0C
08
1C
0C
ENDCHAR
STARTCHAR 0174
ENCODING 372
SWIDTH 928 0
DWIDTH 13 0
BBX 13 14 0 0
BITMAP
0700
0500
0880
0000
C618
4710
4510
6530
6530
2DA0
28A0
28E0
38E0
18C0
ENDCHAR
STARTCHAR 0175
ENCODING 373
SWIDTH 785 0
DWIDTH 11 0
BBX 11 11 0 0
BITMAP
0E00
0A00
1100
0000
C460
4E40
4A40
6A40
2BC0
3180
3180
ENDCHAR
STARTCHAR 0176
ENCODING 374
SWIDTH 642 0
DWIDTH 9 0
BBX 8 14 0 0
BITMAP
18
34
22
00
C3
63
26
34
1C
18
08
08
08
08
ENDCHAR
STARTCHAR 0177
ENCODING 375
SWIDTH 500 0
DWIDTH 7 0
BBX 7 14 0 -3
BITMAP
18
28
44
00
C6
46
64
6C
28
28
38
10
10
70
ENDCHAR
STARTCHAR 0178
ENCODING 376
SWIDTH 642 0
DWIDTH 9 0
BBX 8 13 0 0
BITMAP
36
36
00
C3
63
26
34
1C
18
08
08
08
08
ENDCHAR
STARTCHAR 0179
ENCODING 377
SWIDTH 571 0
DWIDTH 8 0
BBX 7 14 1 0
BITMAP
18
10
30
00
FE
0C
0C
18
30
30
60
40
C0
FE
ENDCHAR
STARTCHAR 017A
ENCODING 378
SWIDTH 500 0
DWIDTH 7 0
BBX 6 11 0 0
BITMAP
08
18
10
00
7C
0C
18
30
20
60
FC
ENDCHAR
STARTCHAR 017B
ENCODING 379
SWIDTH 571 0
DWIDTH 8 0
BBX 7 13 1 0
BITMAP
30
30
00
FE
0C
0C
18
30
30
60
40
C0
FE
ENDCHAR
STARTCHAR 017C
ENCODING 380
SWIDTH 500 0
DWIDTH 7 0
BBX 6 10 0 0
BITMAP
10
30
00
7C
0C
18
30
20
60
FC
ENDCHAR
STARTCHAR 017D
ENCODING 381
SWIDTH 571 0
DWIDTH 8 0
BBX 7 14 1 0
BITMAP
48
6C
30
00
FE
0C
0C
18
30
30
60
40
C0
FE
ENDCHAR
STARTCHAR 017E
ENCODING 382
SWIDTH 500 0
DWIDTH 7 0
BBX 6 11 0 0
BITMAP
44
28
38
00
7C
0C
18
30
20
60
FC
ENDCHAR
STARTCHAR 017F
ENCODING 383
SWIDTH 285 0
DWIDTH 4 0
BBX 5 10 0 0
BITMAP
38
60
60
E0
60
60
60
60
60
60
ENDCHAR
STARTCHAR 018F
ENCODING 399
SWIDTH 714 0
DWIDTH 10 0
BBX 8 10 1 0
BITMAP
3C
66
C3
03
01
FF
83
C3
66
3C
ENDCHAR
STARTCHAR 0192
ENCODING 402
SWIDTH 500 0
DWIDTH 7 0
BBX 7 12 0 -2
BITMAP
1E
10
10
10
10
7C
30
30
30
30
20
E0
ENDCHAR
STARTCHAR 01A0
ENCODING 416
SWIDTH 714 0
DWIDTH 10 0
BBX 8 12 1 0
BITMAP
01
01
3F
46
C3
C3
83
83
C3
C3
46
3C
ENDCHAR
STARTCHAR 01A1
ENCODING 417
SWIDTH 571 0
DWIDTH 8 0
BBX 6 9 1 0
BITMAP
04
04
7C
CC
84
84
84
CC
78
ENDCHAR
STARTCHAR 01AF
ENCODING 431
SWIDTH 714 0
DWIDTH 10 0
BBX 8 12 1 0
BITMAP
01
01
C3
C2
C2
C2
C2
C2
C2
C2
46
3C
ENDCHAR
STARTCHAR 01B0
ENCODING 432
SWIDTH 571 0
DWIDTH 8 0
BBX 7 9 1 0
BITMAP
02
02
CE
CC
CC
CC
CC
CC
7C
ENDCHAR
STARTCHAR 01CD
ENCODING 461
SWIDTH 642 0
DWIDTH 9 0
BBX 9 14 0 0
BITMAP
2200
1400
1C00
0000
1C00
1C00
1400
3600
3200
2200
7F00
6100
4100
C180
ENDCHAR
STARTCHAR 01CE
ENCODING 462
SWIDTH 571 0
DWIDTH 8 0
BBX 6 11 1 0
BITMAP
88
50
30
00
78
88
0C
FC
8C
8C
FC
ENDCHAR
STARTCHAR 01CF
ENCODING 463
SWIDTH 428 0
DWIDTH 6 0
BBX 5 14 0 0
BITMAP
48
F8
30
00
78
30
30
30
30
30
30
30
30
78
ENDCHAR
STARTCHAR 01D0
ENCODING 464
SWIDTH 285 0
DWIDTH 4 0
BBX 5 11 -1 0
BITMAP
48
D8
30
00
30
30
30
30
30
30
30
ENDCHAR
STARTCHAR 01D1
ENCODING 465
SWIDTH 714 0
DWIDTH 10 0
BBX 8 14 1 0
BITMAP
24
3C
18
00
3C
46
C3
C3
83
83
C3
C3
46
3C
ENDCHAR
STARTCHAR 01D2
ENCODING 466
SWIDTH 571 0
DWIDTH 8 0
BBX 6 11 1 0
BITMAP
48
F8
30
00
78
CC
84
84
84
CC
78
ENDCHAR
STARTCHAR 01D3
ENCODING 467
SWIDTH 714 0
DWIDTH 10 0
BBX 7 14 1 0
BITMAP
24
6C
18
00
C2
C2
C2
C2
C2
C2
C2
C2
46
3C
ENDCHAR
STARTCHAR 01D4
ENCODING 468
SWIDTH 571 0
DWIDTH 8 0
BBX 6 11 1 0
BITMAP
48
7C
30
00
CC
CC
CC
CC
CC
CC
7C
ENDCHAR
STARTCHAR 01D5
ENCODING 469
SWIDTH 714 0
DWIDTH 10 0
BBX 7 15 1 0
BITMAP
3C
00
6C
6C
00
C2
C2
C2
C2
C2
C2
C2
C2
46
3C
ENDCHAR
STARTCHAR 01D6
ENCODING 470
SWIDTH 571 0
DWIDTH 8 0
BBX 6 12 1 0
BITMAP
78
00
48
48
00
CC
CC
CC
CC
CC
CC
7C
ENDCHAR
STARTCHAR 01D7
ENCODING 471
SWIDTH 714 0
DWIDTH 10 0
BBX 7 17 1 0
BITMAP
10
0C
18
00
6C
6C
00
C2
C2
C2
C2
C2
C2
C2
C2
46
3C
ENDCHAR
STARTCHAR 01D8
ENCODING 472
SWIDTH 571 0
DWIDTH 8 0
BBX 6 14 1 0
BITMAP
10
18
10
20
48
48
00
CC
CC
CC
CC
CC
CC
7C
ENDCHAR
STARTCHAR 01D9
ENCODING 473
SWIDTH 714 0
DWIDTH 10 0
BBX 7 17 1 0
BITMAP
24
6C
18
00
6C
6C
00
C2
C2
C2
C2
C2
C2
C2
C2
46
3C
ENDCHAR
STARTCHAR 01DA
ENCODING 474
SWIDTH 571 0
DWIDTH 8 0
BBX 6 14 1 0
BITMAP
48
78
30
00
48
48
00
CC
CC
CC
CC
CC
CC
7C
ENDCHAR
STARTCHAR 01DB
ENCODING 475
SWIDTH 714 0
DWIDTH 10 0
BBX 7 17 1 0
BITMAP
20
30
10
08
6C
6C
00
C2
C2
C2
C2
C2
C2
C2
C2
46
3C
ENDCHAR
STARTCHAR 01DC
ENCODING 476
SWIDTH 571 0
DWIDTH 8 0
BBX 6 14 1 0
BITMAP
40
20
20
10
48
48
00
CC
CC
CC
CC
CC
CC
7C
ENDCHAR
STARTCHAR 01FA
ENCODING 506
SWIDTH 642 0
DWIDTH 9 0
BBX 9 17 0 0
BITMAP
0400
0800
0000
1C00
1400
1C00
0000
1C00
1C00
1400
3600
3200
2200
7F00
6100
4100
C180
ENDCHAR
STARTCHAR 01FB
ENCODING 507
SWIDTH 571 0
DWIDTH 8 0
BBX 6 14 1 0
BITMAP
10
20
00
70
50
70
00
78
88
0C
FC
8C
8C
FC
ENDCHAR
STARTCHAR 01FC
ENCODING 508
SWIDTH 928 0
DWIDTH 13 0
BBX 12 14 0 0
BITMAP
0040
00C0
0080
0000
07F0
0F00
0B00
1B00
13F0
3300
3F00
6300
4300
C3F0
ENDCHAR
STARTCHAR 01FD
ENCODING 509
SWIDTH 857 0
DWIDTH 12 0
BBX 11 11 1 0
BITMAP
0400
0600
0800
0000
7780
8CC0
0C40
FFE0
8C00
8C40
F780
ENDCHAR
STARTCHAR 01FE
ENCODING 510
SWIDTH 714 0
DWIDTH 10 0
BBX 8 15 1 -1
BITMAP
08
0C
10
02
3F
46
C7
8D
89
91
B1
E3
66
FC
80
ENDCHAR
STARTCHAR 01FF
ENCODING 511
SWIDTH 571 0
DWIDTH 8 0
BBX 8 11 0 0
BITMAP
08
0C
10
00
3F
66
4A
5A
52
66
FC
ENDCHAR
STARTCHAR 0218
ENCODING 536
SWIDTH 571 0
DWIDTH 8 0
BBX 7 14 1 -4
BITMAP
78
C6
80
C0
70
0C
06
86
C4
78
00
30
30
20
ENDCHAR
STARTCHAR 0219
ENCODING 537
SWIDTH 500 0
DWIDTH 7 0
BBX 6 11 0 -4
BITMAP
38
44
40
3C
04
44
F8
00
10
10
30
ENDCHAR
STARTCHAR 021A
ENCODING 538
SWIDTH 571 0
DWIDTH 8 0
BBX 8 14 0 -4
BITMAP
FF
18
18
18
18
18
18
18
18
18
00
18
18
10
ENDCHAR
STARTCHAR 021B
ENCODING 539
SWIDTH 357 0
DWIDTH 5 0
BBX 5 13 0 -4
BITMAP
20
20
F8
60
60
60
60
20
30
00
30
30
20
ENDCHAR
STARTCHAR 0237
ENCODING 567
SWIDTH 285 0
DWIDTH 4 0
BBX 3 10 0 -3
BITMAP
60
60
60
60
60
60
60
60
60
C0
ENDCHAR
STARTCHAR 0259
ENCODING 601
SWIDTH 571 0
DWIDTH 8 0
BBX 6 7 1 0
BITMAP
78
8C
04
FC
84
CC
78
ENDCHAR
STARTCHAR 02BB
ENCODING 699
SWIDTH 571 0
DWIDTH 8 0
BBX 2 3 3 9
BITMAP
40
C0
C0
ENDCHAR
STARTCHAR 02BC
ENCODING 700
SWIDTH 571 0
DWIDTH 8 0
BBX 2 3 3 7
BITMAP
C0
C0
80
ENDCHAR
STARTCHAR 02C6
ENCODING 710
SWIDTH 571 0
DWIDTH 8 0
BBX 5 3 2 8
BITMAP
60
D0
98
ENDCHAR
STARTCHAR 02C7
ENCODING 711
SWIDTH 571 0
DWIDTH 8 0
BBX 5 3 2 8
BITMAP
90
D8
60
ENDCHAR
STARTCHAR 02D8
ENCODING 728
SWIDTH 571 0
DWIDTH 8 0
BBX 5 2 2 8
BITMAP
98
70
ENDCHAR
STARTCHAR 02D9
ENCODING 729
SWIDTH 571 0
DWIDTH 8 0
BBX 2 2 3 8
BITMAP
C0
C0
ENDCHAR
STARTCHAR 02DA
ENCODING 730
SWIDTH 571 0
DWIDTH 8 0
BBX 4 4 2 8
BITMAP
60
90
90
60
ENDCHAR
STARTCHAR 02DB
ENCODING 731
SWIDTH 571 0
DWIDTH 8 0
BBX 3 4 2 -4
BITMAP
40
80
C0
E0
ENDCHAR
STARTCHAR 02DC
ENCODING 732
SWIDTH 571 0
DWIDTH 8 0
BBX 5 2 2 8
BITMAP
D0
B8
ENDCHAR
STARTCHAR 02DD
ENCODING 733
SWIDTH 571 0
DWIDTH 8 0
BBX 5 3 2 8
BITMAP
48
78
90
ENDCHAR
STARTCHAR 0300
ENCODING 768
SWIDTH 0 0
DWIDTH 0 0
BBX 3 3 -2 8
BITMAP
40
C0
20
ENDCHAR
STARTCHAR 0301
ENCODING 769
SWIDTH 0 0
DWIDTH 0 0
BBX 3 3 -1 8
BITMAP
40
60
C0
ENDCHAR
STARTCHAR 0302
ENCODING 770
SWIDTH 0 0
DWIDTH 0 0
BBX 4 3 -2 8
BITMAP
60
F0
90
ENDCHAR
STARTCHAR 0303
ENCODING 771
SWIDTH 0 0
DWIDTH 0 0
BBX 4 2 -2 8
BITMAP
D0
B0
ENDCHAR
STARTCHAR 0304
ENCODING 772
SWIDTH 0 0
DWIDTH 0 0
BBX 4 1 -2 9
BITMAP
F0
ENDCHAR
STARTCHAR 0306
ENCODING 774
SWIDTH 0 0
DWIDTH 0 0
BBX 4 2 -2 8
BITMAP
90
F0
ENDCHAR
STARTCHAR 0307
ENCODING 775
SWIDTH 0 0
DWIDTH 0 0
BBX 2 2 -1 8
BITMAP
C0
C0
ENDCHAR
STARTCHAR 0308
ENCODING 776
SWIDTH 0 0
DWIDTH 0 0
BBX 4 2 -2 8
BITMAP
90
90
ENDCHAR
STARTCHAR 0309
ENCODING 777
SWIDTH 0 0
DWIDTH 0 0
BBX 2 3 -1 8
BITMAP
C0
40
40
ENDCHAR
STARTCHAR 030A
ENCODING 778
SWIDTH 0 0
DWIDTH 0 0
BBX 4 4 -2 8
BITMAP
60
90
90
60
ENDCHAR
STARTCHAR 030B
ENCODING 779
SWIDTH 0 0
DWIDTH 0 0
BBX 5 3 -2 8
BITMAP
48
70
90
ENDCHAR
STARTCHAR 030C
ENCODING 780
SWIDTH 0 0
DWIDTH 0 0
BBX 4 3 -2 8
BITMAP
90
F0
60
ENDCHAR
STARTCHAR 0312
ENCODING 786
SWIDTH 0 0
DWIDTH 0 0
BBX 2 3 -1 9
BITMAP
40
C0
C0
ENDCHAR
STARTCHAR 0315
ENCODING 789
SWIDTH 0 0
DWIDTH 0 0
BBX 2 3 0 7
BITMAP
C0
80
80
ENDCHAR
STARTCHAR 031B
ENCODING 795
SWIDTH 0 0
DWIDTH 0 0
BBX 2 3 -1 6
BITMAP
40
40
C0
ENDCHAR
STARTCHAR 0323
ENCODING 803
SWIDTH 0 0
DWIDTH 0 0
BBX 2 2 -1 -3
BITMAP
C0
C0
ENDCHAR
STARTCHAR 0326
ENCODING 806
SWIDTH 0 0
DWIDTH 0 0
BBX 2 3 -1 -4
BITMAP
C0
C0
80
ENDCHAR
STARTCHAR 0327
ENCODING 807
SWIDTH 0 0
DWIDTH 0 0
BBX 3 4 -1 -4
BITMAP
80
E0
20
C0
ENDCHAR
STARTCHAR 0328
ENCODING 808
SWIDTH 0 0
DWIDTH 0 0
BBX 3 4 -3 -4
BITMAP
60
40
E0
60
ENDCHAR
STARTCHAR 037E
ENCODING 894
SWIDTH 285 0
DWIDTH 4 0
BBX 2 10 1 -2
BITMAP
C0
C0
00
00
00
00
C0
C0
40
80
ENDCHAR
STARTCHAR 0384
ENCODING 900
SWIDTH 571 0
DWIDTH 8 0
BBX 2 3 4 8
BITMAP
C0
80
80
ENDCHAR
STARTCHAR 0385
ENCODING 901
SWIDTH 571 0
DWIDTH 8 0
BBX 5 3 2 8
BITMAP
20
A8
B8
ENDCHAR
STARTCHAR 0386
ENCODING 902
SWIDTH 642 0
DWIDTH 9 0
BBX 9 11 0 0
BITMAP
4000
5C00
5C00
1400
3600
3200
2200
7F00
6100
4100
C180
ENDCHAR
STARTCHAR 0387
ENCODING 903
SWIDTH 285 0
DWIDTH 4 0
BBX 2 2 1 6
BITMAP
C0
C0
ENDCHAR
STARTCHAR 0388
ENCODING 904
SWIDTH 642 0
DWIDTH 9 0
BBX 8 11 0 0
BITMAP
C0
BF
B0
30
30
3F
30
30
30
30
3F
ENDCHAR
STARTCHAR 0389
ENCODING 905
SWIDTH 785 0
DWIDTH 11 0
BBX 10 11 0 0
BITMAP
C000
B0C0
B0C0
30C0
30C0
3FC0
30C0
30C0
30C0
30C0
30C0
ENDCHAR
STARTCHAR 038A
ENCODING 906
SWIDTH 500 0
DWIDTH 7 0
BBX 6 11 0 0
BITMAP
C0
BC
98
18
18
18
18
18
18
18
3C
ENDCHAR
STARTCHAR 038C
ENCODING 908
SWIDTH 714 0
DWIDTH 10 0
BBX 9 11 0 0
BITMAP
C000
9E00
B100
6180
6080
6080
6080
6080
6180
3100
1E00
ENDCHAR
STARTCHAR 038E
ENCODING 910
SWIDTH 714 0
DWIDTH 10 0
BBX 10 11 0 0
BITMAP
C000
B0C0
9180
1900
0F00
0E00
0600
0600
0600
0600
0600
ENDCHAR
STARTCHAR 038F
ENCODING 911
SWIDTH 714 0
DWIDTH 10 0
BBX 10 11 0 0
BITMAP
C000
9E00
B100
2080
6080
6080
60C0
6080
3180
1300
73C0
ENDCHAR
STARTCHAR 0390
ENCODING 912
SWIDTH 285 0
DWIDTH 4 0
BBX 6 11 -1 0
BITMAP
10
5C
EC
00
30
30
30
30
30
30
38
ENDCHAR
STARTCHAR 0391
ENCODING 913
SWIDTH 642 0
DWIDTH 9 0
BBX 9 10 0 0
BITMAP
1C00
1C00
1400
3600
3200
2200
7F00
6100
4100
C180
ENDCHAR
STARTCHAR 0392
ENCODING 914
SWIDTH 642 0
DWIDTH 9 0
BBX 7 10 1 0
BITMAP
FC
C6
C6
C6
FC
C2
C2
C2
C2
FC
ENDCHAR
STARTCHAR 0393
ENCODING 915
SWIDTH 500 0
DWIDTH 7 0
BBX 6 10 1 0
BITMAP
FC
C0
C0
C0
C0
C0
C0
C0
C0
C0
ENDCHAR
STARTCHAR 0394
ENCODING 916
SWIDTH 642 0
DWIDTH 9 0
BBX 8 10 1 0
BITMAP
38
38
28
6C
64
46
C6
C6
83
FF
ENDCHAR
STARTCHAR 0395
ENCODING 917
SWIDTH 571 0
DWIDTH 8 0
BBX 6 10 1 0
BITMAP
FC
C0
C0
C0
FC
C0
C0
C0
C0
FC
ENDCHAR
STARTCHAR 0396
ENCODING 918
SWIDTH 571 0
DWIDTH 8 0
BBX 7 10 1 0
BITMAP
FE
0C
0C
18
30
30
60
40
C0
FE
ENDCHAR
STARTCHAR 0397
ENCODING 919
SWIDTH 714 0
DWIDTH 10 0
BBX 8 10 1 0
BITMAP
C3
C3
C3
C3
FF
C3
C3
C3
C3
C3
ENDCHAR
STARTCHAR 0398
ENCODING 920
SWIDTH 714 0
DWIDTH 10 0
BBX 8 10 1 0
BITMAP
3C
42
C3
C1
BD
81
C1
C3
42
3C
ENDCHAR
STARTCHAR 0399
ENCODING 921
SWIDTH 428 0
DWIDTH 6 0
BBX 4 10 1 0
BITMAP
F0
60
60
60
60
60
60
60
60
F0
ENDCHAR
STARTCHAR 039A
ENCODING 922
SWIDTH 642 0
DWIDTH 9 0
BBX 8 10 1 0
BITMAP
C7
C4
CC
D8
F0
F8
CC
CC
C6
C3
ENDCHAR
STARTCHAR 039B
ENCODING 923
SWIDTH 642 0
DWIDTH 9 0
BBX 9 10 0 0
BITMAP
1C00
1400
1400
3600
3600
2200
6300
6300
4100
C180
ENDCHAR
STARTCHAR 039C
ENCODING 924
SWIDTH 785 0
DWIDTH 11 0
BBX 9 10 1 0
BITMAP
C180
E180
E380
F280
D680
DC80
C880
C880
C080
C080
ENDCHAR
STARTCHAR 039D
ENCODING 925
SWIDTH 714 0
DWIDTH 10 0
BBX 8 10 1 0
BITMAP
C3
E3
E3
F3
DB
DB
CF
C7
C7
C3
ENDCHAR
STARTCHAR 039E
ENCODING 926
SWIDTH 571 0
DWIDTH 8 0
BBX 6 10 1 0
BITMAP
FC
00
00
00
7C
00
00
00
00
FC
ENDCHAR
STARTCHAR 039F
ENCODING 927
SWIDTH 714 0
DWIDTH 10 0
BBX 8 10 1 0
BITMAP
3C
46
C3
C3
83
83
C3
C3
46
3C
ENDCHAR
STARTCHAR 03A0
ENCODING 928
SWIDTH 714 0
DWIDTH 10 0
BBX 8 10 1 0
BITMAP
FF
C3
C3
C3
C3
C3
C3
C3
C3
C3
ENDCHAR
STARTCHAR 03A1
ENCODING 929
SWIDTH 642 0
DWIDTH 9 0
BBX 7 10 1 0
BITMAP
FC
C6
C2
C2
C6
FC
C0
C0
C0
C0
ENDCHAR
STARTCHAR 03A3
ENCODING 931
SWIDTH 571 0
DWIDTH 8 0
BBX 6 10 1 0
BITMAP
FC
C0
60
30
10
38
20
60
C0
FC
ENDCHAR
STARTCHAR 03A4
ENCODING 932
SWIDTH 571 0
DWIDTH 8 0
BBX 8 10 0 0
BITMAP
FF
18
18
18
18
18
18
18
18
18
ENDCHAR
STARTCHAR 03A5
ENCODING 933
SWIDTH 642 0
DWIDTH 9 0
BBX 8 10 0 0
BITMAP
C3
63
26
34
1C
18
08
08
08
08
ENDCHAR
STARTCHAR 03A6
ENCODING 934
SWIDTH 857 0
DWIDTH 12 0
BBX 10 12 1 -1
BITMAP
0C00
3F00
6D80
CCC0
8C40
8C40
8C40
8C40
CCC0
6D80
3F00
0C00
ENDCHAR
STARTCHAR 03A7
ENCODING 935
SWIDTH 642 0
DWIDTH 9 0
BBX 9 10 0 0
BITMAP
E380
6300
3600
1400
1C00
1C00
3400
3600
6300
C380
ENDCHAR
STARTCHAR 03A8
ENCODING 936
SWIDTH 785 0
DWIDTH 11 0
BBX 9 10 1 0
BITMAP
C880
C880
C880
C880
C880
4980
3F00
0800
0800
0800
ENDCHAR
STARTCHAR 03A9
ENCODING 937
SWIDTH 714 0
DWIDTH 10 0
BBX 8 10 1 0
BITMAP
3C
62
C3
C1
C1
C1
C3
43
66
E7
ENDCHAR
STARTCHAR 03AA
ENCODING 938
SWIDTH 428 0
DWIDTH 6 0
BBX 4 13 1 0
BITMAP
B0
B0
00
F0
60
60
60
60
60
60
60
60
F0
ENDCHAR
STARTCHAR 03AB
ENCODING 939
SWIDTH 642 0
DWIDTH 9 0
BBX 8 13 0 0
BITMAP
36
36
00
C3
63
26
34
1C
18
08
08
08
08
ENDCHAR
STARTCHAR 03AC
ENCODING 940
SWIDTH 642 0
DWIDTH 9 0
BBX 8 11 1 0
BITMAP
10
10
20
00
73
CE
8E
84
8C
CE
73
ENDCHAR
STARTCHAR 03AD
ENCODING 941
SWIDTH 500 0
DWIDTH 7 0
BBX 6 11 1 0
BITMAP
10
10
20
00
78
CC
C0
70
80
84
78
ENDCHAR
STARTCHAR 03AE
ENCODING 942
SWIDTH 571 0
DWIDTH 8 0
BBX 7 14 0 -3
BITMAP
0C
08
08
00
FC
66
62
62
62
62
62
02
02
02
ENDCHAR
STARTCHAR 03AF
ENCODING 943
SWIDTH 285 0
DWIDTH 4 0
BBX 3 11 1 0
BITMAP
40
40
C0
00
C0
C0
C0
C0
C0
C0
E0
ENDCHAR
STARTCHAR 03B0
ENCODING 944
SWIDTH 571 0
DWIDTH 8 0
BBX 6 11 1 0
BITMAP
10
5C
6C
00
C4
C4
C4
C4
CC
CC
78
ENDCHAR
STARTCHAR 03B1
ENCODING 945
SWIDTH 642 0
DWIDTH 9 0
BBX 8 7 1 0
BITMAP
73
CE
8E
84
8C
CE
73
ENDCHAR
STARTCHAR 03B2
ENCODING 946
SWIDTH 571 0
DWIDTH 8 0
BBX 7 13 1 -3
BITMAP
78
CC
C4
CC
D8
C4
C6
C6
C4
F8
C0
C0
C0
ENDCHAR
STARTCHAR 03B3
ENCODING 947
SWIDTH 500 0
DWIDTH 7 0
BBX 7 10 0 -3
BITMAP
C6
44
64
2C
28
38
18
10
10
10
ENDCHAR
STARTCHAR 03B4
ENCODING 948
SWIDTH 571 0
DWIDTH 8 0
BBX 6 10 1 0
BITMAP
FC
E0
30
78
CC
84
84
84
CC
78
ENDCHAR
STARTCHAR 03B5
ENCODING 949
SWIDTH 500 0
DWIDTH 7 0
BBX 6 7 1 0
BITMAP
78
CC
C0
70
80
84
78
ENDCHAR
STARTCHAR 03B6
ENCODING 950
SWIDTH 428 0
DWIDTH 6 0
BBX 5 12 1 -2
BITMAP
F8
10
30
60
C0
C0
80
80
C0
78
18
10
ENDCHAR
STARTCHAR 03B7
ENCODING 951
SWIDTH 571 0
DWIDTH 8 0
BBX 7 10 0 -3
BITMAP
FC
66
62
62
62
62
62
02
02
02
ENDCHAR
STARTCHAR 03B8
ENCODING 952
SWIDTH 571 0
DWIDTH 8 0
BBX 6 10 1 0
BITMAP
78
CC
84
84
FC
84
84
84
CC
78
ENDCHAR
STARTCHAR 03B9
ENCODING 953
SWIDTH 285 0
DWIDTH 4 0
BBX 3 7 1 0
BITMAP
C0
C0
C0
C0
C0
C0
E0
ENDCHAR
STARTCHAR 03BA
ENCODING 954
SWIDTH 571 0
DWIDTH 8 0
BBX 6 7 1 0
BITMAP
CC
D8
F0
F0
D8
C8
CC
ENDCHAR
STARTCHAR 03BB
ENCODING 955
SWIDTH 500 0
DWIDTH 7 0
BBX 7 10 0 0
BITMAP
60
30
10
10
38
28
68
6C
44
C6
ENDCHAR
STARTCHAR 03BC
ENCODING 956
SWIDTH 571 0
DWIDTH 8 0
BBX 7 10 1 -3
BITMAP
C4
C4
C4
C4
C4
CC
B6
C0
C0
C0
ENDCHAR
STARTCHAR 03BD
ENCODING 957
SWIDTH 500 0
DWIDTH 7 0
BBX 7 7 0 0
BITMAP
C6
46
64
2C
28
38
18
ENDCHAR
STARTCHAR 03BE
ENCODING 958
SWIDTH 428 0
DWIDTH 6 0
BBX 5 12 1 -2
BITMAP
F8
40
C0
C0
30
C0
80
80
C0
38
18
10
ENDCHAR
STARTCHAR 03BF
ENCODING 959
SWIDTH 571 0
DWIDTH 8 0
BBX 6 7 1 0
BITMAP
78
CC
84
84
84
CC
78
ENDCHAR
STARTCHAR 03C0
ENCODING 960
SWIDTH 642 0
DWIDTH 9 0
BBX 8 7 0 0
BITMAP
FF
22
22
22
22
22
23
ENDCHAR
STARTCHAR 03C1
ENCODING 961
SWIDTH 571 0
DWIDTH 8 0
BBX 6 10 1 -3
BITMAP
78
CC
84
84
84
CC
B8
80
80
80
ENDCHAR
STARTCHAR 03C2
ENCODING 962
SWIDTH 500 0
DWIDTH 7 0
BBX 6 9 1 -2
BITMAP
78
CC
80
80
80
C0
38
18
18
ENDCHAR
STARTCHAR 03C3
ENCODING 963
SWIDTH 571 0
DWIDTH 8 0
BBX 7 7 1 0
BITMAP
7E
CC
84
84
84
CC
78
ENDCHAR
STARTCHAR 03C4
ENCODING 964
SWIDTH 500 0
DWIDTH 7 0
BBX 6 7 0 0
BITMAP
FC
30
30
30
30
30
1C
ENDCHAR
STARTCHAR 03C5
ENCODING 965
SWIDTH 571 0
DWIDTH 8 0
BBX 6 7 1 0
BITMAP
C4
C4
C4
C4
CC
CC
78
ENDCHAR
STARTCHAR 03C6
ENCODING 966
SWIDTH 714 0
DWIDTH 10 0
BBX 9 10 1 -3
BITMAP
4F00
E900
9980
9980
9980
DB00
7E00
1800
1800
1800
ENDCHAR
STARTCHAR 03C7
ENCODING 967
SWIDTH 500 0
DWIDTH 7 0
BBX 7 10 0 -3
BITMAP
C6
64
2C
38
18
38
28
6C
44
C6
ENDCHAR
STARTCHAR 03C8
ENCODING 968
SWIDTH 714 0
DWIDTH 10 0
BBX 8 13 1 -3
BITMAP
18
18
18
D9
D9
D9
D9
D9
DB
7E
18
18
18
ENDCHAR
STARTCHAR 03C9
ENCODING 969
SWIDTH 785 0
DWIDTH 11 0
BBX 9 7 1 0
BITMAP
6300
C100
9980
9980
9980
D980
7700
ENDCHAR
STARTCHAR 03CA
ENCODING 970
SWIDTH 285 0
DWIDTH 4 0
BBX 4 10 0 0
BITMAP
90
90
00
60
60
60
60
60
60
70
ENDCHAR
STARTCHAR 03CB
ENCODING 971
SWIDTH 571 0
DWIDTH 8 0
BBX 6 10 1 0
BITMAP
48
68
00
C4
C4
C4
C4
CC
CC
78
ENDCHAR
STARTCHAR 03CC
ENCODING 972
SWIDTH 571 0
DWIDTH 8 0
BBX 6 11 1 0
BITMAP
10
10
30
00
78
CC
84
84
84
CC
78
ENDCHAR
STARTCHAR 03CD
ENCODING 973
SWIDTH 571 0
DWIDTH 8 0
BBX 6 11 1 0
BITMAP
10
10
10
00
C4
C4
C4
C4
CC
CC
78
ENDCHAR
STARTCHAR 03CE
ENCODING 974
SWIDTH 785 0
DWIDTH 11 0
BBX 9 11 1 0
BITMAP
0C00
0800
0800
0000
6300
C100
9980
9980
9980
D980
7700
ENDCHAR
STARTCHAR 0400
ENCODING 1024
SWIDTH 571 0
DWIDTH 8 0
BBX 6 14 1 0
BITMAP
20
30
10
00
FC
C0
C0
C0
FC
C0
C0
C0
C0
FC
ENDCHAR
STARTCHAR 0401
ENCODING 1025
SWIDTH 571 0
DWIDTH 8 0
BBX 6 13 1 0
BITMAP
6C
6C
00
FC
C0
C0
C0
FC
C0
C0
C0
C0
FC
ENDCHAR
STARTCHAR 0402
ENCODING 1026
SWIDTH 785 0
DWIDTH 11 0
BBX 10 12 0 -2
BITMAP
FF00
1800
1800
1800
1F80
18C0
1840
1840
1840
1840
0040
0180
ENDCHAR
STARTCHAR 0403
ENCODING 1027
SWIDTH 500 0
DWIDTH 7 0
BBX 6 14 1 0
BITMAP
10
18
20
00
FC
C0
C0
C0
C0
C0
C0
C0
C0
C0
ENDCHAR
STARTCHAR 0404
ENCODING 1028
SWIDTH 642 0
DWIDTH 9 0
BBX 8 10 1 0
BITMAP
3C
42
C5
80
F8
80
C0
C2
63
3C
ENDCHAR
STARTCHAR 0405
ENCODING 1029
SWIDTH 571 0
DWIDTH 8 0
BBX 7 10 1 0
BITMAP
78
C6
80
C0
70
0C
06
86
C4
78
ENDCHAR
STARTCHAR 0406
ENCODING 1030
SWIDTH 428 0
DWIDTH 6 0
BBX 4 10 1 0
BITMAP
F0
60
60
60
60
60
60
60
60
F0
ENDCHAR
STARTCHAR 0407
ENCODING 1031
SWIDTH 428 0
DWIDTH 6 0
BBX 4 13 1 0
BITMAP
B0
B0
00
F0
60
60
60
60
60
60
60
60
F0
ENDCHAR
STARTCHAR 0408
ENCODING 1032
SWIDTH 500 0
DWIDTH 7 0
BBX 6 10 0 0
BITMAP
3C
04
04
04
04
04
04
04
CC
78
ENDCHAR
STARTCHAR 0409
ENCODING 1033
SWIDTH 1000 0
DWIDTH 14 0
BBX 14 10 0 0
BITMAP
3F00
3100
3100
3100
31F8
310C
310C
210C
210C
C1F8
ENDCHAR
STARTCHAR 040A
ENCODING 1034
SWIDTH 1071 0
DWIDTH 15 0
BBX 13 10 1 0
BITMAP
C300
C300
C300
C300
FFF0
C318
C318
C318
C318
C3F0
ENDCHAR
STARTCHAR 040B
ENCODING 1035
SWIDTH 785 0
DWIDTH 11 0
BBX 10 10 0 0
BITMAP
FF00
1800
1800
1800
1F80
18C0
1840
1840
1840
1840
ENDCHAR
STARTCHAR 040C
ENCODING 1036
SWIDTH 642 0
DWIDTH 9 0
BBX 8 14 1 0
BITMAP
08
18
10
00
C3
C4
CC
C8
F0
C8
CC
C4
C6
C3
ENDCHAR
STARTCHAR 040D
ENCODING 1037
SWIDTH 714 0
DWIDTH 10 0
BBX 8 14 1 0
BITMAP
10
30
18
00
C3
C7
C7
CF
CB
D3
F3
E3
E3
C3
ENDCHAR
STARTCHAR 040E
ENCODING 1038
SWIDTH 642 0
DWIDTH 9 0
BBX 8 13 0 0
BITMAP
26
1C
00
C1
63
62
26
36
14
1C
08
08
30
ENDCHAR
STARTCHAR 040F
ENCODING 1039
SWIDTH 714 0
DWIDTH 10 0
BBX 8 12 1 -2
BITMAP
C3
C3
C3
C3
C3
C3
C3
C3
C3
FF
18
18
ENDCHAR
STARTCHAR 0410
ENCODING 1040
SWIDTH 642 0
DWIDTH 9 0
BBX 9 10 0 0
BITMAP
1C00
1C00
1400
3600
3200
2200
7F00
6100
4100
C180
ENDCHAR
STARTCHAR 0411
ENCODING 1041
SWIDTH 642 0
DWIDTH 9 0
BBX 7 10 1 0
BITMAP
FC
C0
C0
C0
FC
C6
C2
C2
C6
FC
ENDCHAR
STARTCHAR 0412
ENCODING 1042
SWIDTH 642 0
DWIDTH 9 0
BBX 7 10 1 0
BITMAP
FC
C6
C6
C6
FC
C2
C2
C2
C2
FC
ENDCHAR
STARTCHAR 0413
ENCODING 1043
SWIDTH 500 0
DWIDTH 7 0
BBX 6 10 1 0
BITMAP
FC
C0
C0
C0
C0
C0
C0
C0
C0
C0
ENDCHAR
STARTCHAR 0414
ENCODING 1044
SWIDTH 785 0
DWIDTH 11 0
BBX 10 12 0 -2
BITMAP
3F80
3180
3180
3180
3180
3180
3180
3180
2180
FFC0
C040
C040
ENDCHAR
STARTCHAR 0415
ENCODING 1045
SWIDTH 571 0
DWIDTH 8 0
BBX 6 10 1 0
BITMAP
FC
C0
C0
C0
FC
C0
C0
C0
C0
FC
ENDCHAR
STARTCHAR 0416
ENCODING 1046
SWIDTH 1000 0
DWIDTH 14 0
BBX 12 10 1 0
BITMAP
C630
4660
6640
2640
1F80
26C0
6640
6660
4620
C630
ENDCHAR
STARTCHAR 0417
ENCODING 1047
SWIDTH 571 0
DWIDTH 8 0
BBX 8 10 0 0
BITMAP
3C
66
02
06
1C
02
03
43
E6
3C
ENDCHAR
STARTCHAR 0418
ENCODING 1048
SWIDTH 714 0
DWIDTH 10 0
BBX 8 10 1 0
BITMAP
C3
C7
C7
CF
CB
D3
F3
E3
E3
C3
ENDCHAR
STARTCHAR 0419
ENCODING 1049
SWIDTH 714 0
DWIDTH 10 0
BBX 8 13 1 0
BITMAP
24
3C
00
C3
C7
C7
CF
CB
D3
F3
E3
E3
C3
ENDCHAR
STARTCHAR 041A
ENCODING 1050
SWIDTH 642 0
DWIDTH 9 0
BBX 8 10 1 0
BITMAP
C3
C4
CC
C8
F0
C8
CC
C4
C6
C3
ENDCHAR
STARTCHAR 041B
ENCODING 1051
SWIDTH 714 0
DWIDTH 10 0
BBX 9 10 0 0
BITMAP
3F80
3180
3180
3180
3180
3180
3180
2180
2180
C180
ENDCHAR
STARTCHAR 041C
ENCODING 1052
SWIDTH 785 0
DWIDTH 11 0
BBX 9 10 1 0
BITMAP
C180
E180
E380
F280
D680
DC80
C880
C880
C080
C080
ENDCHAR
STARTCHAR 041D
ENCODING 1053
SWIDTH 714 0
DWIDTH 10 0
BBX 8 10 1 0
BITMAP
C3
C3
C3
C3
FF
C3
C3
C3
C3
C3
ENDCHAR
STARTCHAR 041E
ENCODING 1054
SWIDTH 714 0
DWIDTH 10 0
BBX 8 10 1 0
BITMAP
3C
46
C3
C3
83
83
C3
C3
46
3C
ENDCHAR
STARTCHAR 041F
ENCODING 1055
SWIDTH 714 0
DWIDTH 10 0
BBX 8 10 1 0
BITMAP
FF
C3
C3
C3
C3
C3
C3
C3
C3
C3
ENDCHAR
STARTCHAR 0420
ENCODING 1056
SWIDTH 642 0
DWIDTH 9 0
BBX 7 10 1 0
BITMAP
FC
C6
C2
C2
C6
FC
C0
C0
C0
C0
ENDCHAR
STARTCHAR 0421
ENCODING 1057
SWIDTH 642 0
DWIDTH 9 0
BBX 7 10 1 0
BITMAP
3C
46
C4
80
80
80
80
C4
46
3C
ENDCHAR
STARTCHAR 0422
ENCODING 1058
SWIDTH 571 0
DWIDTH 8 0
BBX 8 10 0 0
BITMAP
FF
18
18
18
18
18
18
18
18
18
ENDCHAR
STARTCHAR 0423
ENCODING 1059
SWIDTH 642 0
DWIDTH 9 0
BBX 8 10 0 0
BITMAP
C1
63
62
26
36
14
1C
08
08
30
ENDCHAR
STARTCHAR 0424
ENCODING 1060
SWIDTH 857 0
DWIDTH 12 0
BBX 11 10 1 0
BITMAP
0C00
3F80
CCC0
8C40
8C60
8C60
8C40
CCC0
3F80
0C00
ENDCHAR
STARTCHAR 0425
ENCODING 1061
SWIDTH 642 0
DWIDTH 9 0
BBX 9 10 0 0
BITMAP
E380
6300
3600
1400
1C00
1C00
3400
3600
6300
C380
ENDCHAR
STARTCHAR 0426
ENCODING 1062
SWIDTH 714 0
DWIDTH 10 0
BBX 9 12 1 -2
BITMAP
C300
C300
C300
C300
C300
C300
C300
C300
C300
FF80
0080
0080
ENDCHAR
STARTCHAR 0427
ENCODING 1063
SWIDTH 642 0
DWIDTH 9 0
BBX 7 10 1 0
BITMAP
86
86
86
86
C6
7E
06
06
06
06
ENDCHAR
STARTCHAR 0428
ENCODING 1064
SWIDTH 1000 0
DWIDTH 14 0
BBX 12 10 1 0
BITMAP
C630
C630
C630
C630
C630
C630
C630
C630
C630
FFF0
ENDCHAR
STARTCHAR 0429
ENCODING 1065
SWIDTH 1071 0
DWIDTH 15 0
BBX 13 12 1 -2
BITMAP
C630
C630
C630
C630
C630
C630
C630
C630
C630
FFF8
0008
0008
ENDCHAR
STARTCHAR 042A
ENCODING 1066
SWIDTH 714 0
DWIDTH 10 0
BBX 10 10 0 0
BITMAP
F000
1000
1000
1000
1F80
10C0
10C0
10C0
10C0
1F80
ENDCHAR
STARTCHAR 042B
ENCODING 1067
SWIDTH 928 0
DWIDTH 13 0
BBX 10 10 1 0
BITMAP
C040
C040
C040
C040
FC40
C640
C240
C240
C640
FC40
ENDCHAR
STARTCHAR 042C
ENCODING 1068
SWIDTH 642 0
DWIDTH 9 0
BBX 8 10 1 0
BITMAP
C0
C0
C0
C0
FC
C2
C2
C3
C2
FC
ENDCHAR
STARTCHAR 042D
ENCODING 1069
SWIDTH 642 0
DWIDTH 9 0
BBX 8 10 0 0
BITMAP
3C
62
43
01
1F
01
01
43
E2
3C
ENDCHAR
STARTCHAR 042E
ENCODING 1070
SWIDTH 1000 0
DWIDTH 14 0
BBX 12 10 1 0
BITMAP
C3C0
C460
CC30
C830
C830
F830
C830
CC30
C460
C3C0
ENDCHAR
STARTCHAR 042F
ENCODING 1071
SWIDTH 642 0
DWIDTH 9 0
BBX 7 10 1 0
BITMAP
7E
C6
C6
C6
C6
7E
26
66
46
C6
ENDCHAR
STARTCHAR 0430
ENCODING 1072
SWIDTH 571 0
DWIDTH 8 0
BBX 6 7 1 0
BITMAP
78
88
0C
FC
8C
8C
FC
ENDCHAR
STARTCHAR 0431
ENCODING 1073
SWIDTH 571 0
DWIDTH 8 0
BBX 6 10 1 0
BITMAP
3C
40
C0
B8
CC
84
84
84
CC
78
ENDCHAR
STARTCHAR 0432
ENCODING 1074
SWIDTH 571 0
DWIDTH 8 0
BBX 6 7 1 0
BITMAP
F8
CC
CC
F8
C4
C4
FC
ENDCHAR
STARTCHAR 0433
ENCODING 1075
SWIDTH 428 0
DWIDTH 6 0
BBX 5 7 1 0
BITMAP
F8
C0
C0
C0
C0
C0
C0
ENDCHAR
STARTCHAR 0434
ENCODING 1076
SWIDTH 642 0
DWIDTH 9 0
BBX 8 9 0 -2
BITMAP
3E
22
22
22
22
62
FF
C1
C1
ENDCHAR
STARTCHAR 0435
ENCODING 1077
SWIDTH 571 0
DWIDTH 8 0
BBX 6 7 1 0
BITMAP
78
CC
84
FC
80
C4
78
ENDCHAR
STARTCHAR 0436
ENCODING 1078
SWIDTH 785 0
DWIDTH 11 0
BBX 10 7 1 0
BITMAP
C8C0
4980
6900
3E00
6900
4980
C8C0
ENDCHAR
STARTCHAR 0437
ENCODING 1079
SWIDTH 500 0
DWIDTH 7 0
BBX 6 7 0 0
BITMAP
7C
44
04
38
04
44
FC
ENDCHAR
STARTCHAR 0438
ENCODING 1080
SWIDTH 571 0
DWIDTH 8 0
BBX 6 7 1 0
BITMAP
C4
CC
DC
F4
A4
E4
C4
ENDCHAR
STARTCHAR 0439
ENCODING 1081
SWIDTH 571 0
DWIDTH 8 0
BBX 6 10 1 0
BITMAP
4C
38
00
C4
CC
DC
F4
A4
E4
C4
ENDCHAR
STARTCHAR 043A
ENCODING 1082
SWIDTH 571 0
DWIDTH 8 0
BBX 6 7 1 0
BITMAP
CC
C8
D8
F0
D8
C8
CC
ENDCHAR
STARTCHAR 043B
ENCODING 1083
SWIDTH 571 0
DWIDTH 8 0
BBX 7 7 0 0
BITMAP
3E
22
22
22
22
62
C2
ENDCHAR
STARTCHAR 043C
ENCODING 1084
SWIDTH 714 0
DWIDTH 10 0
BBX 8 7 1 0
BITMAP
C3
E7
E7
DB
DB
D3
C3
ENDCHAR
STARTCHAR 043D
ENCODING 1085
SWIDTH 571 0
DWIDTH 8 0
BBX 6 7 1 0
BITMAP
C4
C4
C4
FC
C4
C4
C4
ENDCHAR
STARTCHAR 043E
ENCODING 1086
SWIDTH 571 0
DWIDTH 8 0
BBX 6 7 1 0
BITMAP
78
CC
84
84
84
CC
78
ENDCHAR
STARTCHAR 043F
ENCODING 1087
SWIDTH 571 0
DWIDTH 8 0
BBX 6 7 1 0
BITMAP
FC
C4
C4
C4
C4
C4
C4
ENDCHAR
STARTCHAR 0440
ENCODING 1088
SWIDTH 571 0
DWIDTH 8 0
BBX 7 10 1 -3
BITMAP
F8
C4
C6
C6
C6
C4
F8
C0
C0
C0
ENDCHAR
STARTCHAR 0441
ENCODING 1089
SWIDTH 500 0
DWIDTH 7 0
BBX 6 7 1 0
BITMAP
78
CC
80
80
80
CC
78
ENDCHAR
STARTCHAR 0442
ENCODING 1090
SWIDTH 500 0
DWIDTH 7 0
BBX 6 7 0 0
BITMAP
FC
10
10
10
10
10
10
ENDCHAR
STARTCHAR 0443
ENCODING 1091
SWIDTH 500 0
DWIDTH 7 0
BBX 7 10 0 -3
BITMAP
C6
46
64
6C
28
28
38
10
10
70
ENDCHAR
STARTCHAR 0444
ENCODING 1092
SWIDTH 785 0
DWIDTH 11 0
BBX 9 13 1 -3
BITMAP
0800
0800
0800
6F00
D980
8880
8880
8880
C980
7F00
0800
0800
0800
ENDCHAR
STARTCHAR 0445
ENCODING 1093
SWIDTH 500 0
DWIDTH 7 0
BBX 7 7 0 0
BITMAP
C6
6C
38
18
38
6C
C6
ENDCHAR
STARTCHAR 0446
ENCODING 1094
SWIDTH 642 0
DWIDTH 9 0
BBX 7 9 1 -2
BITMAP
C4
C4
C4
C4
C4
C4
FE
02
02
ENDCHAR
STARTCHAR 0447
ENCODING 1095
SWIDTH 571 0
DWIDTH 8 0
BBX 6 7 1 0
BITMAP
8C
8C
8C
8C
FC
0C
0C
ENDCHAR
STARTCHAR 0448
ENCODING 1096
SWIDTH 785 0
DWIDTH 11 0
BBX 9 7 1 0
BITMAP
C880
C880
C880
C880
C880
C880
FF80
ENDCHAR
STARTCHAR 0449
ENCODING 1097
SWIDTH 857 0
DWIDTH 12 0
BBX 11 9 1 -2
BITMAP
C880
C880
C880
C880
C880
C880
FFE0
0060
0060
ENDCHAR
STARTCHAR 044A
ENCODING 1098
SWIDTH 642 0
DWIDTH 9 0
BBX 8 7 0 0
BITMAP
F0
30
3E
33
31
33
3E
ENDCHAR
STARTCHAR 044B
ENCODING 1099
SWIDTH 785 0
DWIDTH 11 0
BBX 9 7 1 0
BITMAP
C180
C180
F980
CD80
CD80
CD80
F980
ENDCHAR
STARTCHAR 044C
ENCODING 1100
SWIDTH 571 0
DWIDTH 8 0
BBX 6 7 1 0
BITMAP
C0
C0
F8
CC
CC
CC
F8
ENDCHAR
STARTCHAR 044D
ENCODING 1101
SWIDTH 500 0
DWIDTH 7 0
BBX 7 7 0 0
BITMAP
78
C4
06
3E
06
C4
78
ENDCHAR
STARTCHAR 044E
ENCODING 1102
SWIDTH 785 0
DWIDTH 11 0
BBX 10 7 1 0
BITMAP
CF00
C880
D8C0
F8C0
D880
C880
CF00
ENDCHAR
STARTCHAR 044F
ENCODING 1103
SWIDTH 571 0
DWIDTH 8 0
BBX 6 7 1 0
BITMAP
FC
8C
8C
FC
4C
4C
8C
ENDCHAR
STARTCHAR 0450
ENCODING 1104
SWIDTH 571 0
DWIDTH 8 0
BBX 6 11 1 0
BITMAP
60
20
30
00
78
CC
84
FC
80
C4
78
ENDCHAR
STARTCHAR 0451
ENCODING 1105
SWIDTH 571 0
DWIDTH 8 0
BBX 6 10 1 0
BITMAP
48
48
00
78
CC
84
FC
80
C4
78
ENDCHAR
STARTCHAR 0452
ENCODING 1106
SWIDTH 571 0
DWIDTH 8 0
BBX 7 13 0 -3
BITMAP
60
F8
60
7C
66
62
62
62
62
62
02
02
0E
ENDCHAR
STARTCHAR 0453
ENCODING 1107
SWIDTH 428 0
DWIDTH 6 0
BBX 5 11 1 0
BITMAP
10
30
20
00
F8
C0
C0
C0
C0
C0
C0
ENDCHAR
STARTCHAR 0454
ENCODING 1108
SWIDTH 500 0
DWIDTH 7 0
BBX 6 7 1 0
BITMAP
78
CC
80
F0
80
CC
78
ENDCHAR
STARTCHAR 0455
ENCODING 1109
SWIDTH 500 0
DWIDTH 7 0
BBX 6 7 0 0
BITMAP
38
44
40
3C
04
44
F8
ENDCHAR
STARTCHAR 0456
ENCODING 1110
SWIDTH 285 0
DWIDTH 4 0
BBX 2 10 1 0
BITMAP
C0
C0
00
C0
C0
C0
C0
C0
C0
C0
ENDCHAR
STARTCHAR 0457
ENCODING 1111
SWIDTH 285 0
DWIDTH 4 0
BBX 4 10 0 0
BITMAP
B0
B0
00
60
60
60
60
60
60
60
ENDCHAR
STARTCHAR 0458
ENCODING 1112
SWIDTH 285 0
DWIDTH 4 0
BBX 3 13 0 -3
BITMAP
60
60
00
60
60
60
60
60
60
60
60
60
C0
ENDCHAR
STARTCHAR 0459
ENCODING 1113
SWIDTH 857 0
DWIDTH 12 0
BBX 11 7 0 0
BITMAP
3E00
2600
27C0
2660
2620
6660
C7C0
ENDCHAR
STARTCHAR 045A
ENCODING 1114
SWIDTH 857 0
DWIDTH 12 0
BBX 10 7 1 0
BITMAP
C400
C400
C7C0
FC40
C440
C440
C7C0
ENDCHAR
STARTCHAR 045B
ENCODING 1115
SWIDTH 571 0
DWIDTH 8 0
BBX 7 10 0 0
BITMAP
60
F8
60
7C
66
62
62
62
62
62
ENDCHAR
STARTCHAR 045C
ENCODING 1116
SWIDTH 571 0
DWIDTH 8 0
BBX 6 11 1 0
BITMAP
18
10
30
00
CC
C8
D8
F0
D8
C8
CC
ENDCHAR
STARTCHAR 045D
ENCODING 1117
SWIDTH 571 0
DWIDTH 8 0
BBX 6 11 1 0
BITMAP
20
60
10
00
C4
CC
DC
F4
A4
E4
C4
ENDCHAR
STARTCHAR 045E
ENCODING 1118
SWIDTH 500 0
DWIDTH 7 0
BBX 7 13 0 -3
BITMAP
64
38
00
C6
46
64
6C
28
28
38
10
10
70
ENDCHAR
STARTCHAR 045F
ENCODING 1119
SWIDTH 571 0
DWIDTH 8 0
BBX 6 9 1 -2
BITMAP
C4
C4
C4
C4
C4
C4
FC
30
30
ENDCHAR
STARTCHAR 0472
ENCODING 1138
SWIDTH 714 0
DWIDTH 10 0
BBX 8 10 1 0
BITMAP
3C
42
C3
81
FF
81
C3
C3
66
3C
ENDCHAR
STARTCHAR 0473
ENCODING 1139
SWIDTH 571 0
DWIDTH 8 0
BBX 6 7 1 0
BITMAP
78
CC
84
FC
84
CC
78
ENDCHAR
STARTCHAR 0490
ENCODING 1168
SWIDTH 500 0
DWIDTH 7 0
BBX 6 12 1 0
BITMAP
0C
0C
FC
C0
C0
C0
C0
C0
C0
C0
C0
C0
ENDCHAR
STARTCHAR 0491
ENCODING 1169
SWIDTH 428 0
DWIDTH 6 0
BBX 5 9 1 0
BITMAP
18
18
F8
C0
C0
C0
C0
C0
C0
ENDCHAR
STARTCHAR 0492
ENCODING 1170
SWIDTH 500 0
DWIDTH 7 0
BBX 7 10 0 0
BITMAP
3E
20
20
20
FC
20
20
20
20
20
ENDCHAR
STARTCHAR 0493
ENCODING 1171
SWIDTH 428 0
DWIDTH 6 0
BBX 6 7 0 0
BITMAP
7C
60
60
F8
60
60
60
ENDCHAR
STARTCHAR 0494
ENCODING 1172
SWIDTH 642 0
DWIDTH 9 0
BBX 7 12 1 -2
BITMAP
FC
C0
C0
C0
FC
C6
C2
C2
C2
C2
06
0C
ENDCHAR
STARTCHAR 0495
ENCODING 1173
SWIDTH 571 0
DWIDTH 8 0
BBX 6 10 1 -3
BITMAP
F8
C0
C0
F8
CC
C4
C4
04
0C
18
ENDCHAR
STARTCHAR 0496
ENCODING 1174
SWIDTH 1000 0
DWIDTH 14 0
BBX 13 12 1 -2
BITMAP
C630
4660
6640
2640
1F80
26C0
6640
6660
4620
C638
0018
0018
ENDCHAR
STARTCHAR 0497
ENCODING 1175
SWIDTH 785 0
DWIDTH 11 0
BBX 10 9 1 -2
BITMAP
C8C0
4980
6900
3E00
6900
4980
C8C0
0040
0040
ENDCHAR
STARTCHAR 0498
ENCODING 1176
SWIDTH 571 0
DWIDTH 8 0
BBX 8 12 0 -2
BITMAP
3C
66
02
06
1C
02
03
03
E6
3C
18
18
ENDCHAR
STARTCHAR 0499
ENCODING 1177
SWIDTH 500 0
DWIDTH 7 0
BBX 6 9 0 -2
BITMAP
7C
44
04
38
04
44
FC
10
10
ENDCHAR
STARTCHAR 049A
ENCODING 1178
SWIDTH 714 0
DWIDTH 10 0
BBX 8 12 1 -2
BITMAP
C3
C4
CC
C8
F0
C8
CC
C4
C6
C3
01
01
ENDCHAR
STARTCHAR 049B
ENCODING 1179
SWIDTH 571 0
DWIDTH 8 0
BBX 7 9 1 -2
BITMAP
CC
C8
D8
F0
D8
C8
CE
06
06
ENDCHAR
STARTCHAR 049C
ENCODING 1180
SWIDTH 714 0
DWIDTH 10 0
BBX 8 10 1 0
BITMAP
C3
C2
F6
F4
F8
F4
F6
C6
C2
C1
ENDCHAR
STARTCHAR 049D
ENCODING 1181
SWIDTH 642 0
DWIDTH 9 0
BBX 7 7 1 0
BITMAP
C6
E4
E8
F8
EC
E4
C6
ENDCHAR
STARTCHAR 04A0
ENCODING 1184
SWIDTH 785 0
DWIDTH 11 0
BBX 10 10 0 0
BITMAP
F0C0
1180
1100
1300
1E00
1300
1100
1180
1080
10C0
ENDCHAR
STARTCHAR 04A1
ENCODING 1185
SWIDTH 642 0
DWIDTH 9 0
BBX 8 7 0 0
BITMAP
F3
32
36
3C
36
32
33
ENDCHAR
STARTCHAR 04A2
ENCODING 1186
SWIDTH 785 0
DWIDTH 11 0
BBX 9 12 1 -2
BITMAP
C300
C300
C300
C300
FF00
C300
C300
C300
C300
C380
0080
0080
ENDCHAR
STARTCHAR 04A3
ENCODING 1187
SWIDTH 642 0
DWIDTH 9 0
BBX 8 9 1 -2
BITMAP
C4
C4
C4
FC
C4
C4
C7
03
03
ENDCHAR
STARTCHAR 04A4
ENCODING 1188
SWIDTH 928 0
DWIDTH 13 0
BBX 11 10 1 0
BITMAP
C3E0
C300
C300
C300
FF00
C300
C300
C300
C300
C300
ENDCHAR
STARTCHAR 04A5
ENCODING 1189
SWIDTH 785 0
DWIDTH 11 0
BBX 9 7 1 0
BITMAP
C780
C400
C400
FC00
C400
C400
C400
ENDCHAR
STARTCHAR 04AA
ENCODING 1194
SWIDTH 642 0
DWIDTH 9 0
BBX 7 12 1 -2
BITMAP
3C
46
C4
80
80
80
80
C4
46
3C
18
18
ENDCHAR
STARTCHAR 04AB
ENCODING 1195
SWIDTH 500 0
DWIDTH 7 0
BBX 6 9 1 -2
BITMAP
78
CC
80
80
80
CC
78
30
30
ENDCHAR
STARTCHAR 04AE
ENCODING 1198
SWIDTH 642 0
DWIDTH 9 0
BBX 8 10 0 0
BITMAP
C3
63
26
34
1C
18
08
08
08
08
ENDCHAR
STARTCHAR 04AF
ENCODING 1199
SWIDTH 500 0
DWIDTH 7 0
BBX 7 10 0 -3
BITMAP
C6
44
64
2C
28
38
18
10
10
10
ENDCHAR
STARTCHAR 04B0
ENCODING 1200
SWIDTH 642 0
DWIDTH 9 0
BBX 8 10 0 0
BITMAP
C3
63
26
36
1C
18
7E
08
08
08
ENDCHAR
STARTCHAR 04B1
ENCODING 1201
SWIDTH 500 0
DWIDTH 7 0
BBX 7 10 0 -3
BITMAP
C6
44
64
2C
28
38
18
7C
10
10
ENDCHAR
STARTCHAR 04B2
ENCODING 1202
SWIDTH 642 0
DWIDTH 9 0
BBX 9 12 0 -2
BITMAP
E380
6300
3600
1400
1C00
1C00
3400
3600
6200
4380
8080
0080
ENDCHAR
STARTCHAR 04B3
ENCODING 1203
SWIDTH 571 0
DWIDTH 8 0
BBX 8 9 0 -2
BITMAP
C6
6C
38
18
38
6C
47
83
03
ENDCHAR
STARTCHAR 04B6
ENCODING 1206
SWIDTH 714 0
DWIDTH 10 0
BBX 8 12 1 -2
BITMAP
86
86
86
86
C6
7E
06
06
06
07
01
01
ENDCHAR
STARTCHAR 04B7
ENCODING 1207
SWIDTH 571 0
DWIDTH 8 0
BBX 7 9 1 -2
BITMAP
8C
8C
8C
8C
FC
0C
0E
02
02
ENDCHAR
STARTCHAR 04B8
ENCODING 1208
SWIDTH 642 0
DWIDTH 9 0
BBX 7 10 1 0
BITMAP
82
82
82
92
D2
7E
12
12
02
02
ENDCHAR
STARTCHAR 04B9
ENCODING 1209
SWIDTH 571 0
DWIDTH 8 0
BBX 6 7 1 0
BITMAP
8C
8C
AC
AC
FC
2C
0C
ENDCHAR
STARTCHAR 04BA
ENCODING 1210
SWIDTH 642 0
DWIDTH 9 0
BBX 7 10 1 0
BITMAP
C0
C0
C0
C0
FC
C6
C2
C2
C2
C2
ENDCHAR
STARTCHAR 04BB
ENCODING 1211
SWIDTH 571 0
DWIDTH 8 0
BBX 6 10 1 0
BITMAP
C0
C0
C0
F8
CC
C4
C4
C4
C4
C4
ENDCHAR
STARTCHAR 04C0
ENCODING 1216
SWIDTH 428 0
DWIDTH 6 0
BBX 4 10 1 0
BITMAP
F0
60
60
60
60
60
60
60
60
F0
ENDCHAR
STARTCHAR 04C1
ENCODING 1217
SWIDTH 1000 0
DWIDTH 14 0
BBX 12 13 1 0
BITMAP
0900
0F00
0000
C630
4660
6640
2640
1F80
26C0
6640
6660
4620
C630
ENDCHAR
STARTCHAR 04C2
ENCODING 1218
SWIDTH 785 0
DWIDTH 11 0
BBX 10 10 1 0
BITMAP
3200
1C00
0000
C8C0
4980
6900
3E00
6900
4980
C8C0
ENDCHAR
STARTCHAR 04CF
ENCODING 1231
SWIDTH 285 0
DWIDTH 4 0
BBX 2 10 1 0
BITMAP
C0
C0
C0
C0
C0
C0
C0
C0
C0
C0
ENDCHAR
STARTCHAR 04D0
ENCODING 1232
SWIDTH 642 0
DWIDTH 9 0
BBX 9 13 0 0
BITMAP
3200
1C00
0000
1C00
1C00
1400
3600
3200
2200
7F00
6100
4100
C180
ENDCHAR
STARTCHAR 04D1
ENCODING 1233
SWIDTH 571 0
DWIDTH 8 0
BBX 6 10 1 0
BITMAP
C8
70
00
78
88
0C
FC
8C
8C
FC
ENDCHAR
STARTCHAR 04D2
ENCODING 1234
SWIDTH 642 0
DWIDTH 9 0
BBX 9 13 0 0
BITMAP
3600
3600
0000
1C00
1C00
1400
3600
3200
2200
7F00
6100
4100
C180
ENDCHAR
STARTCHAR 04D3
ENCODING 1235
SWIDTH 571 0
DWIDTH 8 0
BBX 6 10 1 0
BITMAP
D8
D8
00
78
88
0C
FC
8C
8C
FC
ENDCHAR
STARTCHAR 04D4
ENCODING 1236
SWIDTH 928 0
DWIDTH 13 0
BBX 12 10 0 0
BITMAP
07F0
0F00
0B00
1B00
13F0
3300
3F00
6300
4300
C3F0
ENDCHAR
STARTCHAR 04D5
ENCODING 1237
SWIDTH 857 0
DWIDTH 12 0
BBX 11 7 1 0
BITMAP
7780
8CC0
0C40
FFE0
8C00
8C40
F780
ENDCHAR
STARTCHAR 04D6
ENCODING 1238
SWIDTH 571 0
DWIDTH 8 0
BBX 6 13 1 0
BITMAP
4C
38
00
FC
C0
C0
C0
FC
C0
C0
C0
C0
FC
ENDCHAR
STARTCHAR 04D7
ENCODING 1239
SWIDTH 571 0
DWIDTH 8 0
BBX 6 10 1 0
BITMAP
48
78
00
78
CC
84
FC
80
C4
78
ENDCHAR
STARTCHAR 04D8
ENCODING 1240
SWIDTH 714 0
DWIDTH 10 0
BBX 8 10 1 0
BITMAP
3C
66
C3
03
01
FF
83
C3
66
3C
ENDCHAR
STARTCHAR 04D9
ENCODING 1241
SWIDTH 571 0
DWIDTH 8 0
BBX 6 7 1 0
BITMAP
78
8C
04
FC
84
CC
78
ENDCHAR
STARTCHAR 04DC
ENCODING 1244
SWIDTH 1000 0
DWIDTH 14 0
BBX 12 13 1 0
BITMAP
0900
0B00
0000
C630
4660
6640
2640
1F80
26C0
6640
6660
4620
C630
ENDCHAR
STARTCHAR 04DD
ENCODING 1245
SWIDTH 785 0
DWIDTH 11 0
BBX 10 10 1 0
BITMAP
3600
3600
0000
C8C0
4980
6900
3E00
6900
4980
C8C0
ENDCHAR
STARTCHAR 04DE
ENCODING 1246
SWIDTH 571 0
DWIDTH 8 0
BBX 8 13 0 0
BITMAP
24
34
00
3C
66
02
06
1C
02
03
43
E6
3C
ENDCHAR
STARTCHAR 04DF
ENCODING 1247
SWIDTH 500 0
DWIDTH 7 0
BBX 6 10 0 0
BITMAP
6C
6C
00
7C
44
04
38
04
44
FC
ENDCHAR
STARTCHAR 04E2
ENCODING 1250
SWIDTH 714 0
DWIDTH 10 0
BBX 8 12 1 0
BITMAP
3C
00
C3
C7
C7
CF
CB
D3
F3
E3
E3
C3
ENDCHAR
STARTCHAR 04E3
ENCODING 1251
SWIDTH 571 0
DWIDTH 8 0
BBX 6 10 1 0
BITMAP
78
00
00
C4
CC
DC
F4
A4
E4
C4
ENDCHAR
STARTCHAR 04E4
ENCODING 1252
SWIDTH 714 0
DWIDTH 10 0
BBX 8 13 1 0
BITMAP
24
24
00
C3
C7
C7
CF
CB
D3
F3
E3
E3
C3
ENDCHAR
STARTCHAR 04E5
ENCODING 1253
SWIDTH 571 0
DWIDTH 8 0
BBX 6 10 1 0
BITMAP
68
68
00
C4
CC
DC
F4
A4
E4
C4
ENDCHAR
STARTCHAR 04E6
ENCODING 1254
SWIDTH 714 0
DWIDTH 10 0
BBX 8 13 1 0
BITMAP
24
2C
00
3C
46
C3
C3
83
83
C3
C3
46
3C
ENDCHAR
STARTCHAR 04E7
ENCODING 1255
SWIDTH 571 0
DWIDTH 8 0
BBX 6 10 1 0
BITMAP
48
58
00
78
CC
84
84
84
CC
78
ENDCHAR
STARTCHAR 04E8
ENCODING 1256
SWIDTH 714 0
DWIDTH 10 0
BBX 8 10 1 0
BITMAP
3C
42
C3
81
FF
81
C3
C3
66
3C
ENDCHAR
STARTCHAR 04E9
ENCODING 1257
SWIDTH 571 0
DWIDTH 8 0
BBX 6 7 1 0
BITMAP
78
CC
84
FC
84
CC
78
ENDCHAR
STARTCHAR 04EE
ENCODING 1262
SWIDTH 642 0
DWIDTH 9 0
BBX 8 12 0 0
BITMAP
3C
00
C1
63
62
26
36
14
1C
08
08
30
ENDCHAR
STARTCHAR 04EF
ENCODING 1263
SWIDTH 500 0
DWIDTH 7 0
BBX 7 13 0 -3
BITMAP
3C
00
00
C6
46
64
6C
28
28
38
10
10
70
ENDCHAR
STARTCHAR 04F0
ENCODING 1264
SWIDTH 642 0
DWIDTH 9 0
BBX 8 13 0 0
BITMAP
36
36
00
C1
63
62
26
36
14
1C
08
08
30
ENDCHAR
STARTCHAR 04F1
ENCODING 1265
SWIDTH 500 0
DWIDTH 7 0
BBX 7 13 0 -3
BITMAP
6C
6C
00
C6
46
64
6C
28
28
38
10
10
70
ENDCHAR
STARTCHAR 04F2
ENCODING 1266
SWIDTH 642 0
DWIDTH 9 0
BBX 8 14 0 0
BITMAP
1A
16
34
00
C1
63
62
26
36
14
1C
08
08
30
ENDCHAR
STARTCHAR 04F3
ENCODING 1267
SWIDTH 500 0
DWIDTH 7 0
BBX 7 14 0 -3
BITMAP
14
36
28
00
C6
46
64
6C
28
28
38
10
10
70
ENDCHAR
STARTCHAR 04F4
ENCODING 1268
SWIDTH 642 0
DWIDTH 9 0
BBX 7 13 1 0
BITMAP
6C
6C
00
86
86
86
86
C6
7E
06
06
06
06
ENDCHAR
STARTCHAR 04F5
ENCODING 1269
SWIDTH 571 0
DWIDTH 8 0
BBX 6 10 1 0
BITMAP
D8
D8
00
8C
8C
8C
8C
FC
0C
0C
ENDCHAR
STARTCHAR 04F8
ENCODING 1272
SWIDTH 928 0
DWIDTH 13 0
BBX 10 13 1 0
BITMAP
1B00
1B00
0000
C040
C040
C040
C040
FC40
C640
C240
C240
C640
FC40
ENDCHAR
STARTCHAR 04F9
ENCODING 1273
SWIDTH 785 0
DWIDTH 11 0
BBX 9 10 1 0
BITMAP
3600
3600
0000
C180
C180
F980
CD80
CD80
CD80
F980
ENDCHAR
STARTCHAR 0E3F
ENCODING 3647
SWIDTH 642 0
DWIDTH 9 0
BBX 7 12 1 -1
BITMAP
10
FC
D6
D6
D6
FC
D2
D2
D2
D2
FC
10
ENDCHAR
STARTCHAR 1E80
ENCODING 7808
SWIDTH 928 0
DWIDTH 13 0
BBX 13 14 0 0
BITMAP
0400
0600
0200
0000
C618
4710
4510
6530
6530
2DA0
28A0
28E0
38E0
18C0
ENDCHAR
STARTCHAR 1E81
ENCODING 7809
SWIDTH 785 0
DWIDTH 11 0
BBX 11 11 0 0
BITMAP
0800
0C00
0400
0000
C460
4E40
4A40
6A40
2BC0
3180
3180
ENDCHAR
STARTCHAR 1E82
ENCODING 7810
SWIDTH 928 0
DWIDTH 13 0
BBX 13 14 0 0
BITMAP
0100
0300
0200
0000
C618
4710
4510
6530
6530
2DA0
28A0
28E0
38E0
18C0
ENDCHAR
STARTCHAR 1E83
ENCODING 7811
SWIDTH 785 0
DWIDTH 11 0
BBX 11 11 0 0
BITMAP
0200
0600
0400
0000
C460
4E40
4A40
6A40
2BC0
3180
3180
ENDCHAR
STARTCHAR 1E84
ENCODING 7812
SWIDTH 928 0
DWIDTH 13 0
BBX 13 13 0 0
BITMAP
0D80
0D80
0000
C618
4710
4510
6530
6530
2DA0
28A0
28E0
38E0
18C0
ENDCHAR
STARTCHAR 1E85
ENCODING 7813
SWIDTH 785 0
DWIDTH 11 0
BBX 11 10 0 0
BITMAP
1B00
1B00
0000
C460
4E40
4A40
6A40
2BC0
3180
3180
ENDCHAR
STARTCHAR 1E9E
ENCODING 7838
SWIDTH 714 0
DWIDTH 10 0
BBX 8 10 1 0
BITMAP
FF
C3
C6
CC
CE
C3
C1
C1
D3
FE
ENDCHAR
STARTCHAR 1EA0
ENCODING 7840
SWIDTH 642 0
DWIDTH 9 0
BBX 9 13 0 -3
BITMAP
1C00
1C00
1400
3600
3200
2200
7F00
6100
4100
C180
0000
0800
0C00
ENDCHAR
STARTCHAR 1EA1
ENCODING 7841
SWIDTH 571 0
DWIDTH 8 0
BBX 6 10 1 -3
BITMAP
78
88
0C
FC
8C
8C
FC
00
20
20
ENDCHAR
STARTCHAR 1EA2
ENCODING 7842
SWIDTH 642 0
DWIDTH 9 0
BBX 9 14 0 0
BITMAP
1C00
0400
0800
0000
1C00
1C00
1400
3600
3200
2200
7F00
6100
4100
C180
ENDCHAR
STARTCHAR 1EA3
ENCODING 7843
SWIDTH 571 0
DWIDTH 8 0
BBX 6 11 1 0
BITMAP
70
10
20
00
78
88
0C
FC
8C
8C
FC
ENDCHAR
STARTCHAR 1EA4
ENCODING 7844
SWIDTH 642 0
DWIDTH 9 0
BBX 9 17 0 0
BITMAP
0100
0180
0200
0C00
1400
2200
0000
1C00
1C00
1400
3600
3200
2200
7F00
6100
4100
C180
ENDCHAR
STARTCHAR 1EA5
ENCODING 7845
SWIDTH 571 0
DWIDTH 8 0
BBX 7 13 1 0
BITMAP
04
06
08
70
D8
00
78
88
0C
FC
8C
8C
FC
ENDCHAR
STARTCHAR 1EA6
ENCODING 7846
SWIDTH 642 0
DWIDTH 9 0
BBX 9 17 0 0
BITMAP
4000
6000
2000
0C00
1400
2200
0000
1C00
1C00
1400
3600
3200
2200
7F00
6100
4100
C180
ENDCHAR
STARTCHAR 1EA7
ENCODING 7847
SWIDTH 571 0
DWIDTH 8 0
BBX 7 13 0 0
BITMAP
80
C0
40
38
6C
00
3C
44
06
7E
46
46
7E
ENDCHAR
STARTCHAR 1EA8
ENCODING 7848
SWIDTH 642 0
DWIDTH 9 0
BBX 9 16 0 0
BITMAP
0700
0100
0E00
1400
2200
0000
1C00
1C00
1400
3600
3200
2200
7F00
6100
4100
C180
ENDCHAR
STARTCHAR 1EA9
ENCODING 7849
SWIDTH 571 0
DWIDTH 8 0
BBX 6 13 1 0
BITMAP
1C
04
08
70
D8
00
78
88
0C
FC
8C
8C
FC
ENDCHAR
STARTCHAR 1EAA
ENCODING 7850
SWIDTH 642 0
DWIDTH 9 0
BBX 9 16 0 0
BITMAP
1A00
2600
0000
1C00
3600
0000
1C00
1C00
1400
3600
3200
2200
7F00
6100
4100
C180
ENDCHAR
STARTCHAR 1EAB
ENCODING 7851
SWIDTH 571 0
DWIDTH 8 0
BBX 6 13 1 0
BITMAP
68
98
00
70
D8
00
78
88
0C
FC
8C
8C
FC
ENDCHAR
STARTCHAR 1EAC
ENCODING 7852
SWIDTH 642 0
DWIDTH 9 0
BBX 9 17 0 -3
BITMAP
1C00
1400
2200
0000
1C00
1C00
1400
3600
3200
2200
7F00
6100
4100
C180
0000
0800
0C00
ENDCHAR
STARTCHAR 1EAD
ENCODING 7853
SWIDTH 571 0
DWIDTH 8 0
BBX 6 14 1 -3
BITMAP
30
50
88
00
78
88
0C
FC
8C
8C
FC
00
20
20
ENDCHAR
STARTCHAR 1EAE
ENCODING 7854
SWIDTH 642 0
DWIDTH 9 0
BBX 9 16 0 0
BITMAP
0400
0C00
0800
2200
1C00
0000
1C00
1C00
1400
3600
3200
2200
7F00
6100
4100
C180
ENDCHAR
STARTCHAR 1EAF
ENCODING 7855
SWIDTH 571 0
DWIDTH 8 0
BBX 6 13 1 0
BITMAP
10
30
20
88
70
00
78
88
0C
FC
8C
8C
FC
ENDCHAR
STARTCHAR 1EB0
ENCODING 7856
SWIDTH 642 0
DWIDTH 9 0
BBX 9 16 0 0
BITMAP
1000
1800
0800
2200
1C00
0000
1C00
1C00
1400
3600
3200
2200
7F00
6100
4100
C180
ENDCHAR
STARTCHAR 1EB1
ENCODING 7857
SWIDTH 571 0
DWIDTH 8 0
BBX 6 13 1 0
BITMAP
40
60
20
88
70
00
78
88
0C
FC
8C
8C
FC
ENDCHAR
STARTCHAR 1EB2
ENCODING 7858
SWIDTH 642 0
DWIDTH 9 0
BBX 9 16 0 0
BITMAP
1C00
0C00
0800
2200
1C00
0000
1C00
1C00
1400
3600
3200
2200
7F00
6100
4100
C180
ENDCHAR
STARTCHAR 1EB3
ENCODING 7859
SWIDTH 571 0
DWIDTH 8 0
BBX 6 13 1 0
BITMAP
70
30
20
88
70
00
78
88
0C
FC
8C
8C
FC
ENDCHAR
STARTCHAR 1EB4
ENCODING 7860
SWIDTH 642 0
DWIDTH 9 0
BBX 9 16 0 0
BITMAP
1A00
2600
0000
2200
1C00
0000
1C00
1C00
1400
3600
3200
2200
7F00
6100
4100
C180
ENDCHAR
STARTCHAR 1EB5
ENCODING 7861
SWIDTH 571 0
DWIDTH 8 0
BBX 6 13 1 0
BITMAP
68
98
00
88
70
00
78
88
0C
FC
8C
8C
FC
ENDCHAR
STARTCHAR 1EB6
ENCODING 7862
SWIDTH 642 0
DWIDTH 9 0
BBX 9 16 0 -3
BITMAP
3200
1C00
0000
1C00
1C00
1400
3600
3200
2200
7F00
6100
4100
C180
0000
0800
0C00
ENDCHAR
STARTCHAR 1EB7
ENCODING 7863
SWIDTH 571 0
DWIDTH 8 0
BBX 6 13 1 -3
BITMAP
C8
70
00
78
88
0C
FC
8C
8C
FC
00
20
20
ENDCHAR
STARTCHAR 1EB8
ENCODING 7864
SWIDTH 571 0
DWIDTH 8 0
BBX 6 13 1 -3
BITMAP
FC
C0
C0
C0
FC
C0
C0
C0
C0
FC
00
30
30
ENDCHAR
STARTCHAR 1EB9
ENCODING 7865
SWIDTH 571 0
DWIDTH 8 0
BBX 6 10 1 -3
BITMAP
78
CC
84
FC
80
C4
78
00
30
30
ENDCHAR
STARTCHAR 1EBA
ENCODING 7866
SWIDTH 571 0
DWIDTH 8 0
BBX 6 14 1 0
BITMAP
38
18
10
00
FC
C0
C0
C0
FC
C0
C0
C0
C0
FC
ENDCHAR
STARTCHAR 1EBB
ENCODING 7867
SWIDTH 571 0
DWIDTH 8 0
BBX 6 11 1 0
BITMAP
30
10
10
00
78
CC
84
FC
80
C4
78
ENDCHAR
STARTCHAR 1EBC
ENCODING 7868
SWIDTH 571 0
DWIDTH 8 0
BBX 6 13 1 0
BITMAP
64
58
00
FC
C0
C0
C0
FC
C0
C0
C0
C0
FC
ENDCHAR
STARTCHAR 1EBD
ENCODING 7869
SWIDTH 571 0
DWIDTH 8 0
BBX 6 10 1 0
BITMAP
68
98
00
78
CC
84
FC
80
C4
78
ENDCHAR
STARTCHAR 1EBE
ENCODING 7870
SWIDTH 571 0
DWIDTH 8 0
BBX 7 17 1 0
BITMAP
02
06
04
30
68
44
00
FC
C0
C0
C0
FC
C0
C0
C0
C0
FC
ENDCHAR
STARTCHAR 1EBF
ENCODING 7871
SWIDTH 571 0
DWIDTH 8 0
BBX 7 13 1 0
BITMAP
06
04
0C
30
48
00
78
CC
84
FC
80
C4
78
ENDCHAR
STARTCHAR 1EC0
ENCODING 7872
SWIDTH 571 0
DWIDTH 8 0
BBX 7 17 0 0
BITMAP
40
C0
20
18
34
22
00
7E
60
60
60
7E
60
60
60
60
7E
ENDCHAR
STARTCHAR 1EC1
ENCODING 7873
SWIDTH 571 0
DWIDTH 8 0
BBX 7 13 0 0
BITMAP
C0
40
60
18
24
00
3C
66
42
7E
40
62
3C
ENDCHAR
STARTCHAR 1EC2
ENCODING 7874
SWIDTH 571 0
DWIDTH 8 0
BBX 7 16 1 0
BITMAP
0E
06
34
68
44
00
FC
C0
C0
C0
FC
C0
C0
C0
C0
FC
ENDCHAR
STARTCHAR 1EC3
ENCODING 7875
SWIDTH 571 0
DWIDTH 8 0
BBX 6 13 1 0
BITMAP
0C
04
04
30
48
00
78
CC
84
FC
80
C4
78
ENDCHAR
STARTCHAR 1EC4
ENCODING 7876
SWIDTH 571 0
DWIDTH 8 0
BBX 6 16 1 0
BITMAP
64
58
00
38
4C
00
FC
C0
C0
C0
FC
C0
C0
C0
C0
FC
ENDCHAR
STARTCHAR 1EC5
ENCODING 7877
SWIDTH 571 0
DWIDTH 8 0
BBX 6 13 1 0
BITMAP
68
98
00
30
48
00
78
CC
84
FC
80
C4
78
ENDCHAR
STARTCHAR 1EC6
ENCODING 7878
SWIDTH 571 0
DWIDTH 8 0
BBX 6 17 1 -3
BITMAP
30
68
44
00
FC
C0
C0
C0
FC
C0
C0
C0
C0
FC
00
30
30
ENDCHAR
STARTCHAR 1EC7
ENCODING 7879
SWIDTH 571 0
DWIDTH 8 0
BBX 6 14 1 -3
BITMAP
30
78
48
00
78
CC
84
FC
80
C4
78
00
30
30
ENDCHAR
STARTCHAR 1EC8
ENCODING 7880
SWIDTH 428 0
DWIDTH 6 0
BBX 4 14 1 0
BITMAP
E0
20
60
00
F0
60
60
60
60
60
60
60
60
F0
ENDCHAR
STARTCHAR 1EC9
ENCODING 7881
SWIDTH 285 0
DWIDTH 4 0
BBX 3 11 0 0
BITMAP
E0
20
60
00
60
60
60
60
60
60
60
ENDCHAR
STARTCHAR 1ECA
ENCODING 7882
SWIDTH 428 0
DWIDTH 6 0
BBX 4 13 1 -3
BITMAP
F0
60
60
60
60
60
60
60
60
F0
00
60
60
ENDCHAR
STARTCHAR 1ECB
ENCODING 7883
SWIDTH 285 0
DWIDTH 4 0
BBX 2 13 1 -3
BITMAP
C0
C0
00
C0
C0
C0
C0
C0
C0
C0
00
C0
C0
ENDCHAR
STARTCHAR 1ECC
ENCODING 7884
SWIDTH 714 0
DWIDTH 10 0
BBX 8 13 1 -3
BITMAP
3C
46
C3
C3
83
83
C3
C3
46
3C
00
18
18
ENDCHAR
STARTCHAR 1ECD
ENCODING 7885
SWIDTH 571 0
DWIDTH 8 0
BBX 6 10 1 -3
BITMAP
78
CC
84
84
84
CC
78
00
30
30
ENDCHAR
STARTCHAR 1ECE
ENCODING 7886
SWIDTH 714 0
DWIDTH 10 0
BBX 8 14 1 0
BITMAP
18
08
08
00
3C
46
C3
C3
83
83
C3
C3
46
3C
ENDCHAR
STARTCHAR 1ECF
ENCODING 7887
SWIDTH 571 0
DWIDTH 8 0
BBX 6 11 1 0
BITMAP
30
10
10
00
78
CC
84
84
84
CC
78
ENDCHAR
STARTCHAR 1ED0
ENCODING 7888
SWIDTH 714 0
DWIDTH 10 0
BBX 8 17 1 0
BITMAP
03
02
06
18
3C
24
00
3C
46
C3
C3
83
83
C3
C3
46
3C
ENDCHAR
STARTCHAR 1ED1
ENCODING 7889
SWIDTH 571 0
DWIDTH 8 0
BBX 7 13 1 0
BITMAP
06
04
0C
30
48
80
78
CC
84
84
84
CC
78
ENDCHAR
STARTCHAR 1ED2
ENCODING 7890
SWIDTH 714 0
DWIDTH 10 0
BBX 8 17 1 0
BITMAP
C0
40
60
18
3C
24
00
3C
46
C3
C3
83
83
C3
C3
46
3C
ENDCHAR
STARTCHAR 1ED3
ENCODING 7891
SWIDTH 571 0
DWIDTH 8 0
BBX 7 13 0 0
BITMAP
80
40
40
38
24
40
3C
66
42
42
42
66
3C
ENDCHAR
STARTCHAR 1ED4
ENCODING 7892
SWIDTH 714 0
DWIDTH 10 0
BBX 8 16 1 0
BITMAP
06
02
1A
3C
24
00
3C
46
C3
C3
83
83
C3
C3
46
3C
ENDCHAR
STARTCHAR 1ED5
ENCODING 7893
SWIDTH 571 0
DWIDTH 8 0
BBX 6 13 1 0
BITMAP
0C
04
04
30
48
80
78
CC
84
84
84
CC
78
ENDCHAR
STARTCHAR 1ED6
ENCODING 7894
SWIDTH 714 0
DWIDTH 10 0
BBX 8 16 1 0
BITMAP
34
4C
00
18
24
00
3C
46
C3
C3
83
83
C3
C3
46
3C
ENDCHAR
STARTCHAR 1ED7
ENCODING 7895
SWIDTH 571 0
DWIDTH 8 0
BBX 6 13 1 0
BITMAP
68
98
00
30
48
00
78
CC
84
84
84
CC
78
ENDCHAR
STARTCHAR 1ED8
ENCODING 7896
SWIDTH 714 0
DWIDTH 10 0
BBX 8 17 1 -3
BITMAP
18
3C
24
00
3C
46
C3
C3
83
83
C3
C3
46
3C
00
18
18
ENDCHAR
STARTCHAR 1ED9
ENCODING 7897
SWIDTH 571 0
DWIDTH 8 0
BBX 6 14 1 -3
BITMAP
30
78
C8
00
78
CC
84
84
84
CC
78
00
30
30
ENDCHAR
STARTCHAR 1EDA
ENCODING 7898
SWIDTH 714 0
DWIDTH 10 0
BBX 8 14 1 0
BITMAP
08
0C
11
01
3F
46
C3
C3
83
83
C3
C3
46
3C
ENDCHAR
STARTCHAR 1EDB
ENCODING 7899
SWIDTH 571 0
DWIDTH 8 0
BBX 6 11 1 0
BITMAP
10
18
24
04
7C
CC
84
84
84
CC
78
ENDCHAR
STARTCHAR 1EDC
ENCODING 7900
SWIDTH 714 0
DWIDTH 10 0
BBX 8 14 1 0
BITMAP
10
30
19
01
3F
46
C3
C3
83
83
C3
C3
46
3C
ENDCHAR
STARTCHAR 1EDD
ENCODING 7901
SWIDTH 571 0
DWIDTH 8 0
BBX 6 11 1 0
BITMAP
60
20
34
04
7C
CC
84
84
84
CC
78
ENDCHAR
STARTCHAR 1EDE
ENCODING 7902
SWIDTH 714 0
DWIDTH 10 0
BBX 8 14 1 0
BITMAP
18
08
09
01
3F
46
C3
C3
83
83
C3
C3
46
3C
ENDCHAR
STARTCHAR 1EDF
ENCODING 7903
SWIDTH 571 0
DWIDTH 8 0
BBX 6 11 1 0
BITMAP
30
10
14
04
7C
CC
84
84
84
CC
78
ENDCHAR
STARTCHAR 1EE0
ENCODING 7904
SWIDTH 714 0
DWIDTH 10 0
BBX 8 13 1 0
BITMAP
34
2D
01
3F
46
C3
C3
83
83
C3
C3
46
3C
ENDCHAR
STARTCHAR 1EE1
ENCODING 7905
SWIDTH 571 0
DWIDTH 8 0
BBX 6 10 1 0
BITMAP
68
5C
04
7C
CC
84
84
84
CC
78
ENDCHAR
STARTCHAR 1EE2
ENCODING 7906
SWIDTH 714 0
DWIDTH 10 0
BBX 8 15 1 -3
BITMAP
01
01
3F
46
C3
C3
83
83
C3
C3
46
3C
00
18
18
ENDCHAR
STARTCHAR 1EE3
ENCODING 7907
SWIDTH 571 0
DWIDTH 8 0
BBX 6 12 1 -3
BITMAP
04
04
7C
CC
84
84
84
CC
78
00
30
30
ENDCHAR
STARTCHAR 1EE4
ENCODING 7908
SWIDTH 714 0
DWIDTH 10 0
BBX 7 13 1 -3
BITMAP
C2
C2
C2
C2
C2
C2
C2
C2
46
3C
00
18
18
ENDCHAR
STARTCHAR 1EE5
ENCODING 7909
SWIDTH 571 0
DWIDTH 8 0
BBX 6 10 1 -3
BITMAP
CC
CC
CC
CC
CC
CC
7C
00
30
30
ENDCHAR
STARTCHAR 1EE6
ENCODING 7910
SWIDTH 714 0
DWIDTH 10 0
BBX 7 14 1 0
BITMAP
38
08
18
00
C2
C2
C2
C2
C2
C2
C2
C2
46
3C
ENDCHAR
STARTCHAR 1EE7
ENCODING 7911
SWIDTH 571 0
DWIDTH 8 0
BBX 6 11 1 0
BITMAP
30
18
10
00
CC
CC
CC
CC
CC
CC
7C
ENDCHAR
STARTCHAR 1EE8
ENCODING 7912
SWIDTH 714 0
DWIDTH 10 0
BBX 8 14 1 0
BITMAP
08
0C
11
01
C3
C2
C2
C2
C2
C2
C2
C2
46
3C
ENDCHAR
STARTCHAR 1EE9
ENCODING 7913
SWIDTH 571 0
DWIDTH 8 0
BBX 7 11 1 0
BITMAP
18
10
32
02
CE
CC
CC
CC
CC
CC
7C
ENDCHAR
STARTCHAR 1EEA
ENCODING 7914
SWIDTH 714 0
DWIDTH 10 0
BBX 8 14 1 0
BITMAP
30
10
19
01
C3
C2
C2
C2
C2
C2
C2
C2
46
3C
ENDCHAR
STARTCHAR 1EEB
ENCODING 7915
SWIDTH 571 0
DWIDTH 8 0
BBX 7 11 1 0
BITMAP
20
60
12
02
CE
CC
CC
CC
CC
CC
7C
ENDCHAR
STARTCHAR 1EEC
ENCODING 7916
SWIDTH 714 0
DWIDTH 10 0
BBX 8 14 1 0
BITMAP
38
08
19
01
C3
C2
C2
C2
C2
C2
C2
C2
46
3C
ENDCHAR
STARTCHAR 1EED
ENCODING 7917
SWIDTH 571 0
DWIDTH 8 0
BBX 7 11 1 0
BITMAP
30
18
12
02
CE
CC
CC
CC
CC
CC
7C
ENDCHAR
STARTCHAR 1EEE
ENCODING 7918
SWIDTH 714 0
DWIDTH 10 0
BBX 8 13 1 0
BITMAP
34
4D
01
C3
C2
C2
C2
C2
C2
C2
C2
46
3C
ENDCHAR
STARTCHAR 1EEF
ENCODING 7919
SWIDTH 571 0
DWIDTH 8 0
BBX 7 10 1 0
BITMAP
68
5A
02
CE
CC
CC
CC
CC
CC
7C
ENDCHAR
STARTCHAR 1EF0
ENCODING 7920
SWIDTH 714 0
DWIDTH 10 0
BBX 8 15 1 -3
BITMAP
01
01
C3
C2
C2
C2
C2
C2
C2
C2
46
3C
00
18
18
ENDCHAR
STARTCHAR 1EF1
ENCODING 7921
SWIDTH 571 0
DWIDTH 8 0
BBX 7 12 1 -3
BITMAP
02
02
CE
CC
CC
CC
CC
CC
7C
00
30
30
ENDCHAR
STARTCHAR 1EF2
ENCODING 7922
SWIDTH 642 0
DWIDTH 9 0
BBX 8 14 0 0
BITMAP
10
18
08
00
C3
63
26
34
1C
18
08
08
08
08
ENDCHAR
STARTCHAR 1EF3
ENCODING 7923
SWIDTH 500 0
DWIDTH 7 0
BBX 7 14 0 -3
BITMAP
20
30
10
00
C6
46
64
6C
28
28
38
10
10
70
ENDCHAR
STARTCHAR 1EF4
ENCODING 7924
SWIDTH 642 0
DWIDTH 9 0
BBX 8 13 0 -3
BITMAP
C3
63
26
34
1C
18
08
08
08
08
00
18
18
ENDCHAR
STARTCHAR 1EF5
ENCODING 7925
SWIDTH 500 0
DWIDTH 7 0
BBX 7 10 0 -3
BITMAP
C6
46
64
6C
28
28
38
10
16
76
ENDCHAR
STARTCHAR 1EF6
ENCODING 7926
SWIDTH 642 0
DWIDTH 9 0
BBX 8 14 0 0
BITMAP
1C
0C
08
00
C3
63
26
34
1C
18
08
08
08
08
ENDCHAR
STARTCHAR 1EF7
ENCODING 7927
SWIDTH 500 0
DWIDTH 7 0
BBX 7 14 0 -3
BITMAP
38
08
10
00
C6
46
64
6C
28
28
38
10
10
70
ENDCHAR
STARTCHAR 1EF8
ENCODING 7928
SWIDTH 642 0
DWIDTH 9 0
BBX 8 13 0 0
BITMAP
32
2C
00
C3
63
26
34
1C
18
08
08
08
08
ENDCHAR
STARTCHAR 1EF9
ENCODING 7929
SWIDTH 500 0
DWIDTH 7 0
BBX 7 13 0 -3
BITMAP
34
4C
00
C6
46
64
6C
28
28
38
10
10
70
ENDCHAR
STARTCHAR 2013
ENCODING 8211
SWIDTH 571 0
DWIDTH 8 0
BBX 8 1 0 4
BITMAP
FF
ENDCHAR
STARTCHAR 2014
ENCODING 8212
SWIDTH 785 0
DWIDTH 11 0
BBX 10 1 0 4
BITMAP
FFC0
ENDCHAR
STARTCHAR 2018
ENCODING 8216
SWIDTH 285 0
DWIDTH 4 0
BBX 2 4 1 6
BITMAP
40
80
C0
C0
ENDCHAR
STARTCHAR 2019
ENCODING 8217
SWIDTH 285 0
DWIDTH 4 0
BBX 2 4 1 6
BITMAP
C0
C0
40
80
ENDCHAR
STARTCHAR 201A
ENCODING 8218
SWIDTH 285 0
DWIDTH 4 0
BBX 3 4 0 -2
BITMAP
60
60
20
C0
ENDCHAR
STARTCHAR 201C
ENCODING 8220
SWIDTH 500 0
DWIDTH 7 0
BBX 5 4 1 6
BITMAP
48
90
D8
D8
ENDCHAR
STARTCHAR 201D
ENCODING 8221
SWIDTH 500 0
DWIDTH 7 0
BBX 5 4 1 6
BITMAP
D8
D8
48
90
ENDCHAR
STARTCHAR 201E
ENCODING 8222
SWIDTH 500 0
DWIDTH 7 0
BBX 6 4 0 -2
BITMAP
6C
6C
24
C8
ENDCHAR
STARTCHAR 2020
ENCODING 8224
SWIDTH 571 0
DWIDTH 8 0
BBX 6 13 1 -3
BITMAP
20
20
20
FC
20
20
20
20
20
20
20
20
20
ENDCHAR
STARTCHAR 2021
ENCODING 8225
SWIDTH 571 0
DWIDTH 8 0
BBX 6 13 1 -3
BITMAP
30
30
30
FC
30
30
30
30
FC
30
30
30
30
ENDCHAR
STARTCHAR 2022
ENCODING 8226
SWIDTH 428 0
DWIDTH 6 0
BBX 4 4 1 2
BITMAP
E0
F0
F0
E0
ENDCHAR
STARTCHAR 2026
ENCODING 8230
SWIDTH 857 0
DWIDTH 12 0
BBX 10 2 1 0
BITMAP
CCC0
CCC0
ENDCHAR
STARTCHAR 2030
ENCODING 8240
SWIDTH 1357 0
DWIDTH 19 0
BBX 17 10 1 0
BITMAP
70C000
918000
910000
9A0000
96E700
752D80
092C80
192C80
112D80
20E700
ENDCHAR
STARTCHAR 2032
ENCODING 8242
SWIDTH 285 0
DWIDTH 4 0
BBX 2 5 1 5
BITMAP
C0
C0
80
80
80
ENDCHAR
STARTCHAR 2033
ENCODING 8243
SWIDTH 428 0
DWIDTH 6 0
BBX 5 5 1 5
BITMAP
D8
D0
90
90
B0
ENDCHAR
STARTCHAR 2039
ENCODING 8249
SWIDTH 285 0
DWIDTH 4 0
BBX 3 6 1 1
BITMAP
40
E0
80
80
C0
60
ENDCHAR
STARTCHAR 203A
ENCODING 8250
SWIDTH 285 0
DWIDTH 4 0
BBX 3 6 1 1
BITMAP
80
C0
60
60
C0
80
ENDCHAR
STARTCHAR 2044
ENCODING 8260
SWIDTH 142 0
DWIDTH 2 0
BBX 8 10 -3 0
BITMAP
01
02
04
0C
08
10
30
20
40
C0
ENDCHAR
STARTCHAR 2070
ENCODING 8304
SWIDTH 357 0
DWIDTH 5 0
BBX 5 5 0 5
BITMAP
70
58
C8
58
70
ENDCHAR
STARTCHAR 2074
ENCODING 8308
SWIDTH 357 0
DWIDTH 5 0
BBX 5 5 0 5
BITMAP
30
50
50
F8
10
ENDCHAR
STARTCHAR 2075
ENCODING 8309
SWIDTH 357 0
DWIDTH 5 0
BBX 5 5 0 5
BITMAP
70
40
70
18
F0
ENDCHAR
STARTCHAR 2076
ENCODING 8310
SWIDTH 357 0
DWIDTH 5 0
BBX 5 5 0 5
BITMAP
30
40
70
D8
70
ENDCHAR
STARTCHAR 2077
ENCODING 8311
SWIDTH 357 0
DWIDTH 5 0
BBX 4 5 0 5
BITMAP
F0
90
30
20
60
ENDCHAR
STARTCHAR 2078
ENCODING 8312
SWIDTH 357 0
DWIDTH 5 0
BBX 5 5 0 5
BITMAP
70
50
70
58
F0
ENDCHAR
STARTCHAR 2079
ENCODING 8313
SWIDTH 357 0
DWIDTH 5 0
BBX 5 5 0 5
BITMAP
70
D0
78
10
60
ENDCHAR
STARTCHAR 2080
ENCODING 8320
SWIDTH 357 0
DWIDTH 5 0
BBX 5 5 0 0
BITMAP
70
58
C8
58
70
ENDCHAR
STARTCHAR 2081
ENCODING 8321
SWIDTH 357 0
DWIDTH 5 0
BBX 5 5 0 0
BITMAP
60
E0
20
20
78
ENDCHAR
STARTCHAR 2082
ENCODING 8322
SWIDTH 357 0
DWIDTH 5 0
BBX 4 5 0 0
BITMAP
70
90
30
60
F0
ENDCHAR
STARTCHAR 2083
ENCODING 8323
SWIDTH 357 0
DWIDTH 5 0
BBX 4 5 0 0
BITMAP
70
90
20
90
70
ENDCHAR
STARTCHAR 2084
ENCODING 8324
SWIDTH 357 0
DWIDTH 5 0
BBX 5 5 0 0
BITMAP
30
50
50
F8
10
ENDCHAR
STARTCHAR 2085
ENCODING 8325
SWIDTH 357 0
DWIDTH 5 0
BBX 5 5 0 0
BITMAP
70
40
70
18
F0
ENDCHAR
STARTCHAR 2086
ENCODING 8326
SWIDTH 357 0
DWIDTH 5 0
BBX 5 5 0 0
BITMAP
30
40
70
D8
70
ENDCHAR
STARTCHAR 2087
ENCODING 8327
SWIDTH 357 0
DWIDTH 5 0
BBX 4 5 0 0
BITMAP
F0
90
30
20
60
ENDCHAR
STARTCHAR 2088
ENCODING 8328
SWIDTH 357 0
DWIDTH 5 0
BBX 5 5 0 0
BITMAP
70
50
70
58
F0
ENDCHAR
STARTCHAR 2089
ENCODING 8329
SWIDTH 357 0
DWIDTH 5 0
BBX 5 5 0 0
BITMAP
70
D0
78
10
60
ENDCHAR
STARTCHAR 20A1
ENCODING 8353
SWIDTH 642 0
DWIDTH 9 0
BBX 7 12 1 -1
BITMAP
1C
3C
5A
D8
A8
A8
A8
A8
E8
6E
3C
30
ENDCHAR
STARTCHAR 20A4
ENCODING 8356
SWIDTH 571 0
DWIDTH 8 0
BBX 7 10 1 0
BITMAP
3C
46
C0
C0
F8
40
F8
60
C0
FE
ENDCHAR
STARTCHAR 20A6
ENCODING 8358
SWIDTH 714 0
DWIDTH 10 0
BBX 10 10 0 0
BITMAP
6180
7180
7980
EFC0
6D80
FDC0
6780
6380
6380
6180
ENDCHAR
STARTCHAR 20A8
ENCODING 8360
SWIDTH 785 0
DWIDTH 11 0
BBX 10 10 1 0
BITMAP
F800
C800
CC00
CDC0
CA00
FB00
D980
C880
CCC0
C780
ENDCHAR
STARTCHAR 20A9
ENCODING 8361
SWIDTH 1000 0
DWIDTH 14 0
BBX 12 10 1 0
BITMAP
8630
C630
CE20
FBF0
4960
CF70
7940
31C0
30C0
30C0
ENDCHAR
STARTCHAR 20AA
ENCODING 8362
SWIDTH 857 0
DWIDTH 12 0
BBX 9 10 1 0
BITMAP
FC80
C680
D680
D680
D680
D680
D680
D680
D080
DF00
ENDCHAR
STARTCHAR 20AB
ENCODING 8363
SWIDTH 571 0
DWIDTH 8 0
BBX 7 10 1 0
BITMAP
0C
3E
0C
7C
8C
8C
8C
7C
00
FC
ENDCHAR
STARTCHAR 20AC
ENCODING 8364
SWIDTH 642 0
DWIDTH 9 0
BBX 7 10 1 0
BITMAP
3C
46
C0
F8
80
F8
C0
C2
66
3C
ENDCHAR
STARTCHAR 20AD
ENCODING 8365
SWIDTH 642 0
DWIDTH 9 0
BBX 9 10 0 0
BITMAP
6300
6200
6600
6C00
FF00
6C00
6400
6600
6300
6180
ENDCHAR
STARTCHAR 20AE
ENCODING 8366
SWIDTH 642 0
DWIDTH 9 0
BBX 7 10 1 0
BITMAP
FE
30
34
3C
30
7C
38
70
B0
30
ENDCHAR
STARTCHAR 20B1
ENCODING 8369
SWIDTH 642 0
DWIDTH 9 0
BBX 9 10 0 0
BITMAP
7E00
6200
FF80
6300
FF80
6200
7E00
6000
6000
6000
ENDCHAR
STARTCHAR 20B2
ENCODING 8370
SWIDTH 642 0
DWIDTH 9 0
BBX 8 12 1 -1
BITMAP
08
3C
4E
DC
90
90
9F
93
D2
56
3C
20
ENDCHAR
STARTCHAR 20B4
ENCODING 8372
SWIDTH 642 0
DWIDTH 9 0
BBX 7 10 1 0
BITMAP
78
44
04
FE
38
FE
40
C0
44
3E
ENDCHAR
STARTCHAR 20B5
ENCODING 8373
SWIDTH 642 0
DWIDTH 9 0
BBX 7 12 1 -1
BITMAP
08
3C
4E
D8
90
90
90
90
D0
56
3C
20
ENDCHAR
STARTCHAR 20B8
ENCODING 8376
SWIDTH 642 0
DWIDTH 9 0
BBX 7 10 1 0
BITMAP
FE
00
FE
30
30
30
30
30
30
30
ENDCHAR
STARTCHAR 20B9
ENCODING 8377
SWIDTH 642 0
DWIDTH 9 0
BBX 7 10 1 0
BITMAP
FE
08
FE
08
F8
30
30
18
18
0C
ENDCHAR
STARTCHAR 20BA
ENCODING 8378
SWIDTH 642 0
DWIDTH 9 0
BBX 8 10 0 0
BITMAP
20
24
3C
70
EC
30
E3
A3
22
3C
ENDCHAR
STARTCHAR 20BD
ENCODING 8381
SWIDTH 642 0
DWIDTH 9 0
BBX 8 10 0 0
BITMAP
7E
63
61
61
63
FE
60
FE
60
60
ENDCHAR
STARTCHAR 20BF
ENCODING 8383
SWIDTH 642 0
DWIDTH 9 0
BBX 7 12 1 -1
BITMAP
28
FC
C6
C6
C6
FC
C2
C2
C2
C2
FC
28
ENDCHAR
STARTCHAR 2113
ENCODING 8467
SWIDTH 500 0
DWIDTH 7 0
BBX 7 10 0 0
BITMAP
38
24
24
2C
28
38
20
E0
26
3C
ENDCHAR
STARTCHAR 2116
ENCODING 8470
SWIDTH 1071 0
DWIDTH 15 0
BBX 13 10 1 0
BITMAP
C270
E2C8
E2C8
F270
D200
DA78
CA00
CE00
C600
C600
ENDCHAR
STARTCHAR 2122
ENCODING 8482
SWIDTH 642 0
DWIDTH 9 0
BBX 8 4 0 6
BITMAP
F9
4F
4D
49
ENDCHAR
STARTCHAR 2126
ENCODING 8486
SWIDTH 714 0
DWIDTH 10 0
BBX 8 10 1 0
BITMAP
3C
62
C3
C1
C1
C1
C3
43
66
E7
ENDCHAR
STARTCHAR 212E
ENCODING 8494
SWIDTH 714 0
DWIDTH 10 0
BBX 10 10 0 0
BITMAP
1E00
2100
6180
6180
FFC0
E000
6000
6080
2100
1E00
ENDCHAR
STARTCHAR 2150
ENCODING 8528
SWIDTH 857 0
DWIDTH 12 0
BBX 12 10 0 0
BITMAP
6040
E080
2180
2100
7A00
04F0
04A0
0820
1060
3040
ENDCHAR
STARTCHAR 2151
ENCODING 8529
SWIDTH 857 0
DWIDTH 12 0
BBX 12 10 0 0
BITMAP
6040
E080
2180
2100
7A00
04E0
0490
08F0
1020
30E0
ENDCHAR
STARTCHAR 2153
ENCODING 8531
SWIDTH 857 0
DWIDTH 12 0
BBX 12 10 0 0
BITMAP
6040
E080
2180
2100
7A00
04E0
04B0
0860
1090
30E0
ENDCHAR
STARTCHAR 2154
ENCODING 8532
SWIDTH 857 0
DWIDTH 12 0
BBX 11 10 0 0
BITMAP
70C0
9080
3100
6300
F200
04E0
0920
0840
1120
20E0
ENDCHAR
STARTCHAR 2155
ENCODING 8533
SWIDTH 857 0
DWIDTH 12 0
BBX 12 10 0 0
BITMAP
6040
E080
2180
2100
7A00
04E0
0480
08E0
1010
30E0
ENDCHAR
STARTCHAR 2156
ENCODING 8534
SWIDTH 857 0
DWIDTH 12 0
BBX 11 10 0 0
BITMAP
70C0
9080
3100
6300
F200
04E0
0880
08E0
1020
21E0
ENDCHAR
STARTCHAR 2157
ENCODING 8535
SWIDTH 857 0
DWIDTH 12 0
BBX 12 10 0 0
BITMAP
7040
9080
2100
9300
7200
04E0
0C80
08E0
1030
21E0
ENDCHAR
STARTCHAR 2158
ENCODING 8536
SWIDTH 857 0
DWIDTH 12 0
BBX 12 10 0 0
BITMAP
3040
5080
5100
FB00
1200
04E0
0C80
08E0
1030
20E0
ENDCHAR
STARTCHAR 2159
ENCODING 8537
SWIDTH 857 0
DWIDTH 12 0
BBX 11 10 0 0
BITMAP
6040
E080
2180
2100
7A00
0460
0480
09E0
11A0
30E0
ENDCHAR
STARTCHAR 215A
ENCODING 8538
SWIDTH 857 0
DWIDTH 12 0
BBX 11 10 0 0
BITMAP
7040
4080
7100
1B00
F200
0460
0C80
0960
11A0
30E0
ENDCHAR
STARTCHAR 215B
ENCODING 8539
SWIDTH 857 0
DWIDTH 12 0
BBX 12 10 0 0
BITMAP
6040
E080
2180
2100
7A00
04E0
0490
0860
1090
30E0
ENDCHAR
STARTCHAR 215C
ENCODING 8540
SWIDTH 857 0
DWIDTH 12 0
BBX 12 10 0 0
BITMAP
7040
9080
2100
9300
7200
04E0
0CA0
08E0
10B0
20E0
ENDCHAR
STARTCHAR 215D
ENCODING 8541
SWIDTH 857 0
DWIDTH 12 0
BBX 12 10 0 0
BITMAP
7040
4080
7100
1B00
F200
04E0
0C90
0860
1090
30E0
ENDCHAR
STARTCHAR 215E
ENCODING 8542
SWIDTH 857 0
DWIDTH 12 0
BBX 11 10 0 0
BITMAP
F0C0
9180
3100
2200
6400
04E0
0920
10C0
3120
61E0
ENDCHAR
STARTCHAR 2190
ENCODING 8592
SWIDTH 857 0
DWIDTH 12 0
BBX 10 5 1 3
BITMAP
3000
6000
FFC0
6000
3000
ENDCHAR
STARTCHAR 2191
ENCODING 8593
SWIDTH 857 0
DWIDTH 12 0
BBX 6 10 3 0
BITMAP
20
70
F8
B4
30
30
30
30
30
30
ENDCHAR
STARTCHAR 2192
ENCODING 8594
SWIDTH 857 0
DWIDTH 12 0
BBX 10 5 1 3
BITMAP
0300
0180
FFC0
0180
0300
ENDCHAR
STARTCHAR 2193
ENCODING 8595
SWIDTH 857 0
DWIDTH 12 0
BBX 6 10 3 0
BITMAP
30
30
30
30
30
30
B4
F8
70
20
ENDCHAR
STARTCHAR 2194
ENCODING 8596
SWIDTH 857 0
DWIDTH 12 0
BBX 10 5 1 3
BITMAP
3300
6180
FFC0
6180
3300
ENDCHAR
STARTCHAR 2195
ENCODING 8597
SWIDTH 857 0
DWIDTH 12 0
BBX 6 10 3 0
BITMAP
20
70
FC
B4
30
30
B4
FC
70
20
ENDCHAR
STARTCHAR 2196
ENCODING 8598
SWIDTH 857 0
DWIDTH 12 0
BBX 7 7 3 2
BITMAP
F0
C0
E0
B0
18
0C
06
ENDCHAR
STARTCHAR 2197
ENCODING 8599
SWIDTH 857 0
DWIDTH 12 0
BBX 7 7 2 2
BITMAP
1E
06
0E
1A
30
60
C0
ENDCHAR
STARTCHAR 2198
ENCODING 8600
SWIDTH 857 0
DWIDTH 12 0
BBX 7 7 2 1
BITMAP
C0
60
30
1A
0E
06
1E
ENDCHAR
STARTCHAR 2199
ENCODING 8601
SWIDTH 857 0
DWIDTH 12 0
BBX 7 7 3 1
BITMAP
06
0C
18
B0
E0
C0
F0
ENDCHAR
STARTCHAR 21A9
ENCODING 8617
SWIDTH 857 0
DWIDTH 12 0
BBX 10 7 1 2
BITMAP
0180
00C0
3040
60C0
FF80
6000
3000
ENDCHAR
STARTCHAR 21AA
ENCODING 8618
SWIDTH 857 0
DWIDTH 12 0
BBX 10 7 1 2
BITMAP
6000
C000
8300
C180
7FC0
0180
0300
ENDCHAR
STARTCHAR 21B0
ENCODING 8624
SWIDTH 857 0
DWIDTH 12 0
BBX 7 10 2 0
BITMAP
10
30
60
FE
62
32
02
02
02
02
ENDCHAR
STARTCHAR 21B1
ENCODING 8625
SWIDTH 857 0
DWIDTH 12 0
BBX 7 10 3 0
BITMAP
10
18
0C
FE
8C
98
80
80
80
80
ENDCHAR
STARTCHAR 21B2
ENCODING 8626
SWIDTH 857 0
DWIDTH 12 0
BBX 7 10 2 0
BITMAP
02
02
02
02
02
32
62
FE
60
10
ENDCHAR
STARTCHAR 21B3
ENCODING 8627
SWIDTH 857 0
DWIDTH 12 0
BBX 7 10 3 0
BITMAP
80
80
80
80
98
8C
FE
0C
18
10
ENDCHAR
STARTCHAR 21B6
ENCODING 8630
SWIDTH 857 0
DWIDTH 12 0
BBX 12 8 0 1
BITMAP
07C0
0860
1020
1030
9400
5C00
3800
1000
ENDCHAR
STARTCHAR 21B7
ENCODING 8631
SWIDTH 857 0
DWIDTH 12 0
BBX 12 8 0 1
BITMAP
3E00
6100
4080
C080
02A0
03B0
01C0
0080
ENDCHAR
STARTCHAR 21BA
ENCODING 8634
SWIDTH 857 0
DWIDTH 12 0
BBX 10 10 1 0
BITMAP
0780
0600
2700
4580
C4C0
C0C0
C0C0
4080
6100
1E00
ENDCHAR
STARTCHAR 21BB
ENCODING 8635
SWIDTH 857 0
DWIDTH 12 0
BBX 10 10 1 0
BITMAP
7800
1800
7900
4880
C880
C0C0
C0C0
4080
6180
1E00
ENDCHAR
STARTCHAR 21C4
ENCODING 8644
SWIDTH 857 0
DWIDTH 12 0
BBX 10 9 1 1
BITMAP
0300
0180
FFC0
0180
3300
6000
FFC0
6000
3000
ENDCHAR
STARTCHAR 21C6
ENCODING 8646
SWIDTH 857 0
DWIDTH 12 0
BBX 10 9 1 1
BITMAP
3000
6000
FFC0
6000
3300
0180
FFC0
0180
0300
ENDCHAR
STARTCHAR 2202
ENCODING 8706
SWIDTH 571 0
DWIDTH 8 0
BBX 6 10 1 0
BITMAP
70
18
0C
74
CC
84
84
84
CC
78
ENDCHAR
STARTCHAR 2206
ENCODING 8710
SWIDTH 642 0
DWIDTH 9 0
BBX 8 10 1 0
BITMAP
38
38
28
6C
64
46
C6
C6
83
FF
ENDCHAR
STARTCHAR 220F
ENCODING 8719
SWIDTH 714 0
DWIDTH 10 0
BBX 8 13 1 -3
BITMAP
FF
42
42
42
42
42
42
42
42
42
42
42
42
ENDCHAR
STARTCHAR 2211
ENCODING 8721
SWIDTH 500 0
DWIDTH 7 0
BBX 7 13 0 -3
BITMAP
FE
40
60
30
10
18
08
18
10
30
60
40
FE
ENDCHAR
STARTCHAR 2212
ENCODING 8722
SWIDTH 571 0
DWIDTH 8 0
BBX 6 1 1 4
BITMAP
FC
ENDCHAR
STARTCHAR 2215
ENCODING 8725
SWIDTH 142 0
DWIDTH 2 0
BBX 8 10 -3 0
BITMAP
01
02
04
0C
08
10
30
20
40
C0
ENDCHAR
STARTCHAR 221A
ENCODING 8730
SWIDTH 571 0
DWIDTH 8 0
BBX 8 10 0 0
BITMAP
01
03
02
E2
26
26
34
14
1C
18
ENDCHAR
STARTCHAR 221E
ENCODING 8734
SWIDTH 785 0
DWIDTH 11 0
BBX 10 5 0 2
BITMAP
7B80
CE40
C440
CE40
7380
ENDCHAR
STARTCHAR 222B
ENCODING 8747
SWIDTH 428 0
DWIDTH 6 0
BBX 5 13 1 -3
BITMAP
38
60
60
60
60
60
60
60
60
60
60
60
C0
ENDCHAR
STARTCHAR 2248
ENCODING 8776
SWIDTH 571 0
DWIDTH 8 0
BBX 7 5 1 2
BITMAP
E4
9E
00
E4
9E
ENDCHAR
STARTCHAR 2260
ENCODING 8800
SWIDTH 571 0
DWIDTH 8 0
BBX 6 6 1 1
BITMAP
0C
FC
10
30
FC
40
ENDCHAR
STARTCHAR 2264
ENCODING 8804
SWIDTH 571 0
DWIDTH 8 0
BBX 6 8 1 0
BITMAP
04
1C
E0
E0
1C
04
00
FC
ENDCHAR
STARTCHAR 2265
ENCODING 8805
SWIDTH 571 0
DWIDTH 8 0
BBX 6 8 1 0
BITMAP
C0
70
1C
1C
70
C0
00
FC
ENDCHAR
STARTCHAR 25CA
ENCODING 9674
SWIDTH 571 0
DWIDTH 8 0
BBX 7 10 1 0
BITMAP
30
38
68
4C
84
86
4C
68
38
30
ENDCHAR
STARTCHAR 2713
ENCODING 10003
SWIDTH 928 0
DWIDTH 13 0
BBX 9 10 2 0
BITMAP
0180
0180
0300
8300
C200
4600
6400
2C00
3800
1800
ENDCHAR
STARTCHAR 274C
ENCODING 10060
SWIDTH 928 0
DWIDTH 13 0
BBX 9 10 2 0
BITMAP
8080
C180
6300
3600
1C00
1C00
3600
6300
C180
8080
ENDCHAR
STARTCHAR 2B0E
ENCODING 11022
SWIDTH 857 0
DWIDTH 12 0
BBX 10 7 1 1
BITMAP
FF00
0300
0300
0B80
0EC0
0700
0200
ENDCHAR
STARTCHAR 2B0F
ENCODING 11023
SWIDTH 857 0
DWIDTH 12 0
BBX 10 7 1 2
BITMAP
0200
0700
0E80
0AC0
0200
0200
FE00
ENDCHAR
STARTCHAR 2B10
ENCODING 11024
SWIDTH 857 0
DWIDTH 12 0
BBX 10 7 1 1
BITMAP
3FC0
3000
3000
B400
5C00
3800
1000
ENDCHAR
STARTCHAR 2B11
ENCODING 11025
SWIDTH 857 0
DWIDTH 12 0
BBX 10 7 1 2
BITMAP
1000
3800
5C00
B400
3000
3000
3FC0
ENDCHAR
STARTCHAR ECE0
ENCODING 60640
SWIDTH 1142 0
DWIDTH 16 0
BBX 14 10 1 0
BITMAP
181C
783C
6070
C040
8078
8078
C040
6070
783C
181C
ENDCHAR
STARTCHAR EFCC
ENCODING 61388
SWIDTH 1071 0
DWIDTH 15 0
BBX 12 10 2 0
BITMAP
F7C0
8C20
9BB0
9440
F400
9400
9440
8BA0
8C30
83C0
ENDCHAR
STARTCHAR F6D7
ENCODING 63191
SWIDTH 0 0
DWIDTH 0 0
BBX 4 6 -2 8
BITMAP
20
30
20
40
90
90
ENDCHAR
STARTCHAR F6D8
ENCODING 63192
SWIDTH 0 0
DWIDTH 0 0
BBX 4 6 -2 8
BITMAP
80
C0
40
20
90
90
ENDCHAR
STARTCHAR FB01
ENCODING 64257
SWIDTH 571 0
DWIDTH 8 0
BBX 7 10 0 0
BITMAP
3A
62
60
FE
62
62
62
62
62
62
ENDCHAR
STARTCHAR FB02
ENCODING 64258
SWIDTH 642 0
DWIDTH 9 0
BBX 8 10 0 0
BITMAP
3A
62
62
FA
62
62
62
62
62
63
ENDCHAR
ENDFONT
